<svg width="468" height="76" viewBox="0 0 468 76" fill="none" xmlns="http://www.w3.org/2000/svg">
<path d="M58 45.1H67.5C66.9667 41.3 65.8333 37.9667 64.1 35.1C62.3667 32.1667 60.2 29.7333 57.6 27.8C55 25.8667 52.0333 24.4 48.7 23.4C45.3667 22.4 41.8333 21.9 38.1 21.9C32.6333 21.9 27.7667 22.9 23.5 24.9C19.3 26.8333 15.7667 29.5 12.9 32.9C10.1 36.3 7.96667 40.3 6.5 44.9C5.03333 49.4333 4.3 54.3 4.3 59.5C4.3 64.7 4.96667 69.5667 6.3 74.1C7.7 78.6333 9.76667 82.5667 12.5 85.9C15.2333 89.2333 18.6667 91.8667 22.8 93.8C26.9333 95.6667 31.7667 96.6 37.3 96.6C46.4333 96.6 53.6333 94.1 58.9 89.1C64.1667 84.1 67.2667 77.1 68.2 68.1H58.7C58.5 71.0333 57.9 73.7667 56.9 76.3C55.9 78.8333 54.5 81.0333 52.7 82.9C50.9667 84.7 48.8667 86.1333 46.4 87.2C44 88.2 41.2333 88.7 38.1 88.7C33.8333 88.7 30.1667 87.9 27.1 86.3C24.0333 84.7 21.5 82.5667 19.5 79.9C17.5667 77.1667 16.1333 74 15.2 70.4C14.2667 66.7333 13.8 62.8667 13.8 58.8C13.8 55.0667 14.2667 51.4667 15.2 48C16.1333 44.5333 17.5667 41.4667 19.5 38.8C21.5 36.0667 24 33.9 27 32.3C30.0667 30.7 33.7333 29.9 38 29.9C43 29.9 47.3 31.1667 50.9 33.7C54.5667 36.2333 56.9333 40.0333 58 45.1ZM87.568 34V23.6H79.068V34H87.568ZM79.068 43.3V95H87.568V43.3H79.068ZM100.436 43.3V95H108.936V72C108.936 68.6667 109.269 65.7333 109.936 63.2C110.603 60.6 111.669 58.4 113.136 56.6C114.603 54.8 116.536 53.4333 118.936 52.5C121.336 51.5667 124.236 51.1 127.636 51.1V42.1C123.036 41.9667 119.236 42.9 116.236 44.9C113.236 46.9 110.703 50 108.636 54.2H108.436V43.3H100.436ZM168.258 59.9H177.058C176.724 56.8333 175.924 54.2 174.658 52C173.391 49.7333 171.758 47.8667 169.758 46.4C167.824 44.9333 165.558 43.8667 162.958 43.2C160.424 42.4667 157.691 42.1 154.758 42.1C150.691 42.1 147.124 42.8333 144.058 44.3C140.991 45.7 138.424 47.6667 136.358 50.2C134.358 52.6667 132.858 55.6 131.858 59C130.858 62.3333 130.358 65.9333 130.358 69.8C130.358 73.6667 130.858 77.2333 131.858 80.5C132.924 83.7 134.458 86.4667 136.458 88.8C138.524 91.1333 141.058 92.9333 144.058 94.2C147.124 95.4667 150.624 96.1 154.558 96.1C161.158 96.1 166.358 94.3667 170.158 90.9C174.024 87.4333 176.424 82.5 177.358 76.1H168.658C168.124 80.1 166.658 83.2 164.258 85.4C161.924 87.6 158.658 88.7 154.458 88.7C151.791 88.7 149.491 88.1667 147.558 87.1C145.624 86.0333 144.058 84.6333 142.858 82.9C141.658 81.1 140.758 79.0667 140.158 76.8C139.624 74.5333 139.358 72.2 139.358 69.8C139.358 67.2 139.624 64.7 140.158 62.3C140.691 59.8333 141.558 57.6667 142.758 55.8C144.024 53.9333 145.691 52.4333 147.758 51.3C149.824 50.1667 152.391 49.6 155.458 49.6C159.058 49.6 161.924 50.5 164.058 52.3C166.191 54.1 167.591 56.6333 168.258 59.9ZM228.79 95V43.3H220.29V72.5C220.29 74.8333 219.957 77 219.29 79C218.69 80.9333 217.757 82.6333 216.49 84.1C215.223 85.5667 213.623 86.7 211.69 87.5C209.823 88.3 207.59 88.7 204.99 88.7C201.723 88.7 199.157 87.7667 197.29 85.9C195.423 84.0333 194.49 81.5 194.49 78.3V43.3H185.99V77.3C185.99 80.1 186.257 82.6667 186.79 85C187.39 87.2667 188.39 89.2333 189.79 90.9C191.19 92.5667 193.023 93.8667 195.29 94.8C197.557 95.6667 200.39 96.1 203.79 96.1C207.59 96.1 210.89 95.3667 213.69 93.9C216.49 92.3667 218.79 90 220.59 86.8H220.79V95H228.79ZM242.056 23.6V95H250.556V23.6H242.056ZM309.524 94.8C308.058 95.6667 306.024 96.1 303.424 96.1C301.224 96.1 299.458 95.5 298.124 94.3C296.858 93.0333 296.224 91 296.224 88.2C293.891 91 291.158 93.0333 288.024 94.3C284.958 95.5 281.624 96.1 278.024 96.1C275.691 96.1 273.458 95.8333 271.324 95.3C269.258 94.7667 267.458 93.9333 265.924 92.8C264.391 91.6667 263.158 90.2 262.224 88.4C261.358 86.5333 260.924 84.3 260.924 81.7C260.924 78.7667 261.424 76.3667 262.424 74.5C263.424 72.6333 264.724 71.1333 266.324 70C267.991 68.8 269.858 67.9 271.924 67.3C274.058 66.7 276.224 66.2 278.424 65.8C280.758 65.3333 282.958 65 285.024 64.8C287.158 64.5333 289.024 64.2 290.624 63.8C292.224 63.3333 293.491 62.7 294.424 61.9C295.358 61.0333 295.824 59.8 295.824 58.2C295.824 56.3333 295.458 54.8333 294.724 53.7C294.058 52.5667 293.158 51.7 292.024 51.1C290.958 50.5 289.724 50.1 288.324 49.9C286.991 49.7 285.658 49.6 284.324 49.6C280.724 49.6 277.724 50.3 275.324 51.7C272.924 53.0333 271.624 55.6 271.424 59.4H262.924C263.058 56.2 263.724 53.5 264.924 51.3C266.124 49.1 267.724 47.3333 269.724 46C271.724 44.6 273.991 43.6 276.524 43C279.124 42.4 281.891 42.1 284.824 42.1C287.158 42.1 289.458 42.2667 291.724 42.6C294.058 42.9333 296.158 43.6333 298.024 44.7C299.891 45.7 301.391 47.1333 302.524 49C303.658 50.8667 304.224 53.3 304.224 56.3V82.9C304.224 84.9 304.324 86.3667 304.524 87.3C304.791 88.2333 305.591 88.7 306.924 88.7C307.658 88.7 308.524 88.5333 309.524 88.2V94.8ZM295.724 68.3C294.658 69.1 293.258 69.7 291.524 70.1C289.791 70.4333 287.958 70.7333 286.024 71C284.158 71.2 282.258 71.4667 280.324 71.8C278.391 72.0667 276.658 72.5333 275.124 73.2C273.591 73.8667 272.324 74.8333 271.324 76.1C270.391 77.3 269.924 78.9667 269.924 81.1C269.924 82.5 270.191 83.7 270.724 84.7C271.324 85.6333 272.058 86.4 272.924 87C273.858 87.6 274.924 88.0333 276.124 88.3C277.324 88.5667 278.591 88.7 279.924 88.7C282.724 88.7 285.124 88.3333 287.124 87.6C289.124 86.8 290.758 85.8333 292.024 84.7C293.291 83.5 294.224 82.2333 294.824 80.9C295.424 79.5 295.724 78.2 295.724 77V68.3ZM329.235 43.3V27.8H320.735V43.3H311.935V50.8H320.735V83.7C320.735 86.1 320.968 88.0333 321.435 89.5C321.902 90.9667 322.602 92.1 323.535 92.9C324.535 93.7 325.802 94.2667 327.335 94.6C328.935 94.8667 330.835 95 333.035 95H339.535V87.5H335.635C334.302 87.5 333.202 87.4667 332.335 87.4C331.535 87.2667 330.902 87.0333 330.435 86.7C329.968 86.3667 329.635 85.9 329.435 85.3C329.302 84.7 329.235 83.9 329.235 82.9V50.8H339.535V43.3H329.235ZM357.978 34V23.6H349.478V34H357.978ZM349.478 43.3V95H357.978V43.3H349.478ZM377.346 69.2C377.346 66.0667 377.746 63.3 378.546 60.9C379.413 58.4333 380.579 56.3667 382.046 54.7C383.513 53.0333 385.213 51.7667 387.146 50.9C389.146 50.0333 391.246 49.6 393.446 49.6C395.646 49.6 397.713 50.0333 399.646 50.9C401.646 51.7667 403.379 53.0333 404.846 54.7C406.313 56.3667 407.446 58.4333 408.246 60.9C409.113 63.3 409.546 66.0667 409.546 69.2C409.546 72.3333 409.113 75.1333 408.246 77.6C407.446 80 406.313 82.0333 404.846 83.7C403.379 85.3 401.646 86.5333 399.646 87.4C397.713 88.2667 395.646 88.7 393.446 88.7C391.246 88.7 389.146 88.2667 387.146 87.4C385.213 86.5333 383.513 85.3 382.046 83.7C380.579 82.0333 379.413 80 378.546 77.6C377.746 75.1333 377.346 72.3333 377.346 69.2ZM368.346 69.2C368.346 73 368.879 76.5333 369.946 79.8C371.013 83.0667 372.613 85.9333 374.746 88.4C376.879 90.8 379.513 92.7 382.646 94.1C385.779 95.4333 389.379 96.1 393.446 96.1C397.579 96.1 401.179 95.4333 404.246 94.1C407.379 92.7 410.013 90.8 412.146 88.4C414.279 85.9333 415.879 83.0667 416.946 79.8C418.013 76.5333 418.546 73 418.546 69.2C418.546 65.4 418.013 61.8667 416.946 58.6C415.879 55.2667 414.279 52.4 412.146 50C410.013 47.5333 407.379 45.6 404.246 44.2C401.179 42.8 397.579 42.1 393.446 42.1C389.379 42.1 385.779 42.8 382.646 44.2C379.513 45.6 376.879 47.5333 374.746 50C372.613 52.4 371.013 55.2667 369.946 58.6C368.879 61.8667 368.346 65.4 368.346 69.2ZM428.568 43.3V95H437.068V65.8C437.068 63.4667 437.368 61.3333 437.968 59.4C438.635 57.4 439.601 55.6667 440.868 54.2C442.135 52.7333 443.701 51.6 445.568 50.8C447.501 50 449.768 49.6 452.368 49.6C455.635 49.6 458.201 50.5333 460.068 52.4C461.935 54.2667 462.868 56.8 462.868 60V95H471.368V61C471.368 58.2 471.068 55.6667 470.468 53.4C469.935 51.0667 468.968 49.0667 467.568 47.4C466.168 45.7333 464.335 44.4333 462.068 43.5C459.801 42.5667 456.968 42.1 453.568 42.1C445.901 42.1 440.301 45.2333 436.768 51.5H436.568V43.3H428.568Z" transform="translate(-4 -21)" fill="#C5161D"/>
</svg>
