<svg width="144" height="75" viewBox="0 0 144 75" version="1.1" xmlns="http://www.w3.org/2000/svg" xmlns:xlink="http://www.w3.org/1999/xlink">
    <title>AHSA_LIW_Color_CS6</title>
    <desc>Created using Figma</desc>
    <g id="Canvas" transform="translate(-2357 -19093)">
        <g id="AHSA_LIW_Color_CS6">
            <g id="Group">
                <g id="Vector">
                    <use xlink:href="#path0_fill" transform="translate(2368.25 19134.3)"/>
                </g>
                <g id="Vector">
                    <use xlink:href="#path1_fill" transform="translate(2376.53 19136.3)"/>
                </g>
                <g id="Vector">
                    <use xlink:href="#path2_fill" transform="translate(2386.07 19136.4)"/>
                </g>
                <g id="Vector">
                    <use xlink:href="#path3_fill" transform="translate(2392.63 19136.3)"/>
                </g>
                <g id="Vector">
                    <use xlink:href="#path4_fill" transform="translate(2396.93 19134.4)"/>
                </g>
                <g id="Vector">
                    <use xlink:href="#path5_fill" transform="translate(2399.58 19136.3)"/>
                </g>
                <g id="Vector">
                    <use xlink:href="#path6_fill" transform="translate(2405.83 19136.4)"/>
                </g>
                <g id="Vector">
                    <use xlink:href="#path7_fill" transform="translate(2412.16 19136.3)"/>
                </g>
                <g id="Vector">
                    <use xlink:href="#path8_fill" transform="translate(2381.46 19145.4)"/>
                </g>
                <g id="Vector">
                    <use xlink:href="#path9_fill" transform="translate(2391.3 19148.1)"/>
                </g>
                <g id="Vector">
                    <use xlink:href="#path10_fill" transform="translate(2399.5 19148)"/>
                </g>
                <g id="Vector">
                    <use xlink:href="#path11_fill" transform="translate(2407.79 19148.1)"/>
                </g>
                <g id="Vector">
                    <use xlink:href="#path12_fill" transform="translate(2413.49 19146)"/>
                </g>
                <g id="Vector">
                    <use xlink:href="#path13_fill" transform="translate(2357 19158.7)"/>
                </g>
                <g id="Vector">
                    <use xlink:href="#path14_fill" transform="translate(2364.66 19160.9)"/>
                </g>
                <g id="Vector">
                    <use xlink:href="#path15_fill" transform="translate(2370.52 19160.9)"/>
                </g>
                <g id="Vector">
                    <use xlink:href="#path16_fill" transform="translate(2376.77 19160.8)"/>
                </g>
                <g id="Vector">
                    <use xlink:href="#path17_fill" transform="translate(2383.49 19160.7)"/>
                </g>
                <g id="Vector">
                    <use xlink:href="#path18_fill" transform="translate(2389.97 19158.8)"/>
                </g>
                <g id="Vector">
                    <use xlink:href="#path6_fill" transform="translate(2392.55 19160.9)"/>
                </g>
                <g id="Vector">
                    <use xlink:href="#path19_fill" transform="translate(2398.49 19159.3)"/>
                </g>
                <g id="Vector">
                    <use xlink:href="#path20_fill" transform="translate(2402.94 19158.8)"/>
                </g>
                <g id="Vector">
                    <use xlink:href="#path21_fill" transform="translate(2405.52 19160.8)"/>
                </g>
                <g id="Vector">
                    <use xlink:href="#path22_fill" transform="translate(2412.24 19160.8)"/>
                </g>
                <g id="Group">
                    <g id="Group">
                        <g id="Vector">
                            <use xlink:href="#path23_fill" transform="translate(2422.54 19093)" fill="#ED1C24"/>
                        </g>
                        <g id="Vector">
                            <use xlink:href="#path24_fill" transform="translate(2409.19 19104.5)" fill="#ED1C24"/>
                        </g>
                    </g>
                    <g id="Vector">
                        <use xlink:href="#path25_fill" transform="translate(2423.8 19111.3)" fill="#FFFFFF"/>
                    </g>
                    <g id="Vector">
                        <use xlink:href="#path26_fill" transform="translate(2419.51 19108)" fill="#FFFFFF"/>
                    </g>
                </g>
            </g>
            <g id="Group">
                <g id="Group">
                    <g id="Vector">
                        <use xlink:href="#path27_fill" transform="translate(2434.66 19134.4)"/>
                    </g>
                    <g id="Vector">
                        <use xlink:href="#path28_fill" transform="translate(2442.87 19136.4)"/>
                    </g>
                    <g id="Vector">
                        <use xlink:href="#path29_fill" transform="translate(2452.48 19136.5)"/>
                    </g>
                    <g id="Vector">
                        <use xlink:href="#path30_fill" transform="translate(2459.04 19136.4)"/>
                    </g>
                    <g id="Vector">
                        <use xlink:href="#path31_fill" transform="translate(2463.34 19134.4)"/>
                    </g>
                    <g id="Vector">
                        <use xlink:href="#path32_fill" transform="translate(2465.92 19136.3)"/>
                    </g>
                    <g id="Vector">
                        <use xlink:href="#path33_fill" transform="translate(2472.25 19136.4)"/>
                    </g>
                    <g id="Vector">
                        <use xlink:href="#path34_fill" transform="translate(2478.5 19136.4)"/>
                    </g>
                </g>
                <g id="Vector">
                    <use xlink:href="#path35_fill" transform="translate(2435.05 19145.3)"/>
                </g>
                <g id="Vector">
                    <use xlink:href="#path36_fill" transform="translate(2444.12 19146.1)"/>
                </g>
                <g id="Vector">
                    <use xlink:href="#path37_fill" transform="translate(2449.51 19148.2)"/>
                </g>
                <g id="Vector">
                    <use xlink:href="#path38_fill" transform="translate(2454.64 19148.1)"/>
                </g>
                <g id="Vector">
                    <use xlink:href="#path39_fill" transform="translate(2463.5 19145.5)"/>
                </g>
                <g id="Vector">
                    <use xlink:href="#path40_fill" transform="translate(2470.61 19148.2)"/>
                </g>
                <g id="Vector">
                    <use xlink:href="#path27_fill" transform="translate(2434.66 19158.8)"/>
                </g>
                <g id="Vector">
                    <use xlink:href="#path41_fill" transform="translate(2442.17 19161)"/>
                </g>
                <g id="Vector">
                    <use xlink:href="#path42_fill" transform="translate(2448.18 19161)"/>
                </g>
                <g id="Vector">
                    <use xlink:href="#path43_fill" transform="translate(2454.35 19160.8)"/>
                </g>
                <g id="Vector">
                    <use xlink:href="#path44_fill" transform="translate(2461.07 19160.8)"/>
                </g>
                <g id="Vector">
                    <use xlink:href="#path45_fill" transform="translate(2467.56 19158.8)"/>
                </g>
                <g id="Vector">
                    <use xlink:href="#path46_fill" transform="translate(2470.29 19160.9)"/>
                </g>
                <g id="Vector">
                    <use xlink:href="#path47_fill" transform="translate(2476.07 19159.4)"/>
                </g>
                <g id="Vector">
                    <use xlink:href="#path31_fill" transform="translate(2480.53 19158.8)"/>
                </g>
                <g id="Vector">
                    <use xlink:href="#path48_fill" transform="translate(2483.11 19160.8)"/>
                </g>
                <g id="Vector">
                    <use xlink:href="#path34_fill" transform="translate(2489.83 19160.9)"/>
                </g>
            </g>
            <g id="Group">
                <g id="Vector">
                    <use xlink:href="#path49_fill" transform="translate(2425.91 19143)"/>
                </g>
            </g>
            <g id="Group">
                <g id="Vector">
                    <use xlink:href="#path50_fill" transform="translate(2497.56 19163.2)"/>
                </g>
            </g>
        </g>
    </g>
    <defs>
        <path id="path0_fill" d="M 4.76615 0L 7.65709 7.88074L 5.86002 7.88074L 5.23495 6.14698L 2.34401 6.14698L 1.71894 7.88074L 2.22069e-14 7.88074L 2.96908 0L 4.76615 0ZM 4.92242 4.88605L 3.90668 1.97018L 2.89094 4.88605L 4.92242 4.88605Z"/>
        <path id="path1_fill" d="M 1.48454 0.157617L 1.48454 0.945691C 1.71894 0.630461 1.95333 0.394032 2.18774 0.236417C 2.50027 0.0788026 2.81281 4.81002e-06 3.20347 4.81002e-06C 3.59414 4.81002e-06 3.90668 0.0788026 4.21921 0.236417C 4.53175 0.394032 4.76614 0.630461 4.92241 0.945691C 5.07868 0.709269 5.31309 0.472844 5.62562 0.315229C 5.93815 0.157615 6.25069 4.81002e-06 6.64136 4.81002e-06C 6.95389 4.81002e-06 7.18829 -2.40736e-06 7.50082 0.078805C 7.73522 0.157612 7.96962 0.236427 8.12589 0.394042C 8.28216 0.551656 8.43843 0.788069 8.51656 1.02449C 8.59469 1.26091 8.67282 1.57615 8.67282 1.97019L 8.67282 5.75293L 7.11015 5.75293L 7.11015 2.52184C 7.11015 2.36422 7.11015 2.1278 7.11015 1.97019C 7.11015 1.81257 7.03202 1.65495 6.95389 1.49734C 6.87575 1.33973 6.79763 1.26092 6.64136 1.18212C 6.48509 1.10331 6.32882 1.1033 6.09441 1.1033C 5.86001 1.1033 5.70375 1.18211 5.54748 1.26092C 5.39121 1.33972 5.31309 1.41854 5.23495 1.57615C 5.15682 1.73377 5.07869 1.89137 5.07869 2.04899C 5.07869 2.2066 5.07869 2.36422 5.07869 2.60064L 5.07869 5.75293L 3.51602 5.75293L 3.51602 2.52184C 3.51602 2.36422 3.51602 2.2066 3.51602 2.04899C 3.51602 1.89137 3.51601 1.73377 3.43788 1.57615C 3.35974 1.41854 3.28161 1.33972 3.20347 1.26092C 3.04721 1.18211 2.89094 1.1033 2.65654 1.1033C 2.57841 1.1033 2.50028 1.10331 2.34401 1.18212C 2.18775 1.18212 2.1096 1.26092 2.03147 1.33973C 1.95334 1.41853 1.79707 1.57615 1.71894 1.73376C 1.64081 1.89138 1.56268 2.1278 1.56268 2.44303L 1.56268 5.75293L 4.7689e-06 5.75293L 4.7689e-06 0.078805L 1.48454 0.078805L 1.48454 0.157617Z"/>
        <path id="path2_fill" d="M 1.95334 4.41321C 2.18774 4.64964 2.50028 4.72844 2.96908 4.72844C 3.28162 4.72844 3.51602 4.64963 3.75042 4.49201C 3.98482 4.3344 4.14108 4.17679 4.14108 4.01918L 5.54748 4.01918C 5.31308 4.72844 5.00055 5.20128 4.53175 5.51651C 4.06295 5.83174 3.51601 5.98936 2.89094 5.98936C 2.42214 5.98936 2.03147 5.91055 1.71894 5.75294C 1.32827 5.59532 1.09387 5.43771 0.781338 5.12248C 0.546937 4.88605 0.312539 4.57083 0.234405 4.17679C 0.0781383 3.78275 2.38445e-06 3.38872 2.38445e-06 2.99468C 2.38445e-06 2.60064 0.0781383 2.20661 0.234405 1.81257C 0.390673 1.41853 0.54693 1.10331 0.859465 0.866883C 1.09387 0.630461 1.40641 0.394037 1.79708 0.236422C 2.18774 0.0788074 2.57841 -2.40501e-06 2.96908 -2.40501e-06C 3.43788 -2.40501e-06 3.90668 0.0788122 4.21921 0.315234C 4.60988 0.472849 4.84428 0.788078 5.07868 1.10331C 5.31309 1.41854 5.46935 1.81257 5.54748 2.20661C 5.62561 2.60064 5.70375 3.07349 5.62562 3.46753L 1.56267 3.46753C 1.64081 3.86157 1.71894 4.17679 1.95334 4.41321ZM 3.75042 1.41853C 3.59415 1.18211 3.28161 1.10331 2.89094 1.10331C 2.65654 1.10331 2.42214 1.18211 2.26587 1.26092C 2.1096 1.33973 1.95334 1.41853 1.8752 1.57614C 1.79707 1.73376 1.71893 1.81257 1.6408 1.97018C 1.56267 2.1278 1.56267 2.2066 1.56267 2.36422L 4.06295 2.36422C 4.06295 1.89137 3.90668 1.65495 3.75042 1.41853Z"/>
        <path id="path3_fill" d="M 1.48454 0.157617L 1.48454 1.18212C 1.56268 1.0245 1.64081 0.866881 1.79707 0.709266C 1.95334 0.551651 2.03147 0.394037 2.18774 0.315229C 2.34401 0.236422 2.50027 0.157612 2.73467 0.078805C 2.89094 -2.40736e-06 3.12534 4.81002e-06 3.28161 4.81002e-06C 3.35974 4.81002e-06 3.51601 -2.40736e-06 3.59415 0.078805L 3.59415 1.49734C 3.51601 1.49734 3.43788 1.49734 3.35974 1.49734C 3.28161 1.49734 3.12535 1.49734 3.04721 1.49734C 2.73468 1.49734 2.50027 1.57614 2.344 1.65495C 2.1096 1.73376 1.95334 1.89137 1.87521 2.04899C 1.71894 2.2066 1.64081 2.44302 1.64081 2.60064C 1.56267 2.83706 1.56267 3.07349 1.56267 3.30991L 1.56267 5.91056L -2.38445e-06 5.91056L -2.38445e-06 0.236417L 1.48454 0.236417L 1.48454 0.157617Z"/>
        <path id="path4_fill" d="M -2.38445e-06 1.26092L -2.38445e-06 4.81002e-06L 1.56267 4.81002e-06L 1.56267 1.26092L -2.38445e-06 1.26092ZM 1.56267 2.1278L 1.56267 7.80193L -2.38445e-06 7.80193L -2.38445e-06 2.1278L 1.56267 2.1278Z"/>
        <path id="path5_fill" d="M 2.89094 1.26092C 2.65654 1.26092 2.42214 1.33973 2.26587 1.41853C 2.10961 1.49734 1.95334 1.65495 1.87521 1.89137C 1.79707 2.04899 1.71894 2.28541 1.6408 2.52183C 1.56267 2.75826 1.56268 2.91587 1.56268 3.15229C 1.56268 3.38872 1.56267 3.54633 1.6408 3.78276C 1.71894 4.01918 1.71894 4.17679 1.87521 4.3344C 1.95334 4.49202 2.10961 4.64963 2.26587 4.72844C 2.42214 4.80725 2.65654 4.88605 2.89094 4.88605C 3.28161 4.88605 3.51601 4.80725 3.75041 4.57083C 3.98481 4.33441 4.06294 4.09798 4.14107 3.70394L 5.62562 3.70394C 5.54749 4.49202 5.23495 5.04367 4.76615 5.4377C 4.29734 5.83174 3.67228 6.06816 2.89094 6.06816C 2.50028 6.06816 2.10961 5.98935 1.71894 5.83174C 1.32827 5.67412 1.09387 5.51652 0.781341 5.20129C 0.54694 4.96487 0.31253 4.64963 0.234396 4.25559C 0.0781288 3.86156 4.76889e-06 3.54633 4.76889e-06 3.07348C 4.76889e-06 2.60064 0.078136 2.20661 0.15627 1.81257C 0.312537 1.41853 0.468801 1.10331 0.703202 0.866886C 0.937603 0.551656 1.25013 0.394039 1.6408 0.236424C 2.03147 0.0788098 2.42214 2.23984e-14 2.89094 2.23984e-14C 3.20348 2.23984e-14 3.51601 0.0788049 3.82855 0.157612C 4.14108 0.23642 4.45362 0.394034 4.68802 0.551649C 4.92242 0.709264 5.15681 0.945693 5.31308 1.26092C 5.46935 1.49734 5.54748 1.81257 5.54748 2.20661L 4.06295 2.20661C 3.90668 1.57615 3.51601 1.26092 2.89094 1.26092Z"/>
        <path id="path6_fill" d="M 0.390673 0.945683C 0.54694 0.709261 0.781331 0.472842 1.01573 0.394034C 1.25013 0.23642 1.56267 0.157617 1.87521 0.0788098C 2.18774 2.40149e-06 2.50027 -2.40501e-06 2.81281 -2.40501e-06C 3.12534 -2.40501e-06 3.35975 2.40149e-06 3.67228 0.0788098C 3.98481 0.157617 4.21922 0.236427 4.45362 0.315234C 4.68802 0.394042 4.92242 0.630456 5.07869 0.788071C 5.23495 1.02449 5.31308 1.26092 5.31308 1.65496L 5.31308 4.64964C 5.31308 4.88606 5.31308 5.12248 5.39122 5.3589C 5.39122 5.59532 5.46935 5.75293 5.54748 5.91055L 3.98481 5.91055C 3.98481 5.83174 3.90668 5.75293 3.90668 5.67412C 3.90668 5.59532 3.90668 5.51651 3.82855 5.3589C 3.59414 5.59532 3.28161 5.83174 2.96907 5.91055C 2.65654 5.98936 2.26588 6.06816 1.95334 6.06816C 1.71894 6.06816 1.40641 6.06817 1.17201 5.98936C 0.937608 5.91055 0.703205 5.83174 0.546937 5.67412C 0.39067 5.51651 0.234403 5.3589 0.15627 5.12248C 0.078136 4.88605 4.76889e-06 4.64963 4.76889e-06 4.3344C 4.76889e-06 4.01917 0.078136 3.78275 0.15627 3.54633C 0.234403 3.30991 0.390663 3.1523 0.625064 3.07349C 0.781331 2.91588 1.01573 2.83706 1.25013 2.75826C 1.48454 2.67945 1.71894 2.67945 1.95334 2.60064C 2.18775 2.60064 2.42214 2.52183 2.65654 2.52183C 2.89094 2.52183 3.04721 2.44303 3.28161 2.44303C 3.43788 2.36422 3.59415 2.36423 3.67228 2.28542C 3.75041 2.20661 3.82855 2.049 3.82855 1.89138C 3.82855 1.73377 3.82854 1.57615 3.75041 1.49734C 3.67227 1.41854 3.59415 1.33973 3.51602 1.26092C 3.43788 1.18211 3.28161 1.18211 3.20347 1.18211C 3.04721 1.18211 2.96907 1.18211 2.81281 1.18211C 2.50027 1.18211 2.26588 1.26092 2.10961 1.41853C 1.95334 1.57615 1.79707 1.73376 1.79707 2.04899L 0.234396 2.04899C 0.156262 1.49734 0.234405 1.18211 0.390673 0.945683ZM 3.43788 3.15229C 3.35974 3.15229 3.20348 3.2311 3.12535 3.2311C 3.04721 3.2311 2.89095 3.3099 2.73468 3.3099C 2.57841 3.3099 2.50028 3.30991 2.34401 3.38872C 2.18775 3.38872 2.1096 3.46753 2.03147 3.46753C 1.95334 3.46753 1.79707 3.54633 1.71894 3.62514C 1.64081 3.70395 1.56267 3.78276 1.48454 3.86157C 1.4064 3.94037 1.4064 4.09799 1.4064 4.2556C 1.4064 4.41322 1.4064 4.49202 1.48454 4.57083C 1.56267 4.64963 1.64081 4.72844 1.71894 4.80725C 1.79707 4.88606 1.8752 4.88605 2.03147 4.88605C 2.1096 4.88605 2.26587 4.88605 2.42214 4.88605C 2.73467 4.88605 2.96908 4.80725 3.12535 4.72844C 3.28162 4.64963 3.43788 4.49202 3.51602 4.3344C 3.59415 4.17679 3.67228 4.01918 3.67228 3.86157C 3.67228 3.70395 3.67228 3.62514 3.67228 3.54633L 3.67228 2.99468C 3.67228 3.07349 3.59414 3.07348 3.43788 3.15229Z"/>
        <path id="path7_fill" d="M 1.64081 0.157617L 1.64081 0.945691C 1.87521 0.630461 2.10961 0.394032 2.42214 0.236417C 2.73468 0.0788026 3.04721 4.81002e-06 3.35974 4.81002e-06C 3.75041 4.81002e-06 4.14108 0.0788098 4.37548 0.157617C 4.60988 0.236424 4.84429 0.394032 5.00055 0.630454C 5.15682 0.866876 5.23495 1.10331 5.31308 1.33973C 5.39122 1.65496 5.39122 1.97018 5.39122 2.28541L 5.39122 5.83174L 3.82855 5.83174L 3.82855 2.60064C 3.82855 2.12779 3.75041 1.81257 3.59415 1.57615C 3.43788 1.33973 3.20348 1.26092 2.81281 1.26092C 2.42214 1.26092 2.10961 1.41853 1.87521 1.65495C 1.71894 1.89137 1.56267 2.36422 1.56267 2.91587L 1.56267 5.91056L -2.38445e-06 5.91056L -2.38445e-06 0.236417L 1.64081 0.236417L 1.64081 0.157617Z"/>
        <path id="path8_fill" d="M 2.18774 0.078805L 2.18774 3.94037L 6.25068 3.94037L 6.25068 0.078805L 8.43843 0.078805L 8.43843 10.245L 6.25068 10.245L 6.25068 5.83174L 2.18774 5.83174L 2.18774 10.1661L -4.7689e-06 10.1661L -4.7689e-06 4.81002e-06L 2.18774 4.81002e-06L 2.18774 0.078805Z"/>
        <path id="path9_fill" d="M 2.50027 5.75294C 2.81281 6.06817 3.20347 6.22578 3.82854 6.22578C 4.21921 6.22578 4.60988 6.14697 4.84428 5.91055C 5.15681 5.67413 5.31308 5.51651 5.39121 5.28009L 7.11016 5.28009C 6.79763 6.14697 6.40695 6.77744 5.78188 7.17147C 5.23494 7.56551 4.53174 7.72312 3.67228 7.72312C 3.12534 7.72312 2.57841 7.64431 2.1096 7.40789C 1.6408 7.25027 1.25013 6.93504 0.937601 6.61981C 0.625066 6.30458 0.39067 5.91055 0.234403 5.4377C 0.078136 4.96486 2.22069e-14 4.41321 2.22069e-14 3.86156C 2.22069e-14 3.3099 0.078136 2.83706 0.234403 2.36422C 0.39067 1.89138 0.703205 1.49733 1.01574 1.1033C 1.32827 0.788069 1.71894 0.472839 2.18774 0.315225C 2.65654 0.0788025 3.12534 2.23984e-14 3.67228 2.23984e-14C 4.29734 2.23984e-14 4.84428 0.157615 5.31309 0.394037C 5.78189 0.630459 6.17255 0.945686 6.40695 1.33972C 6.71949 1.73376 6.95389 2.20661 7.03202 2.75826C 7.18829 3.30991 7.18829 3.86157 7.18829 4.41322L 1.95334 4.41322C 2.03147 4.96487 2.18774 5.43771 2.50027 5.75294ZM 4.76615 1.89137C 4.53175 1.65495 4.14108 1.49733 3.67228 1.49733C 3.35974 1.49733 3.12534 1.57615 2.89094 1.65496C 2.65654 1.73377 2.50028 1.89138 2.42215 2.049C 2.26588 2.20661 2.18774 2.36422 2.18774 2.52183C 2.10961 2.67945 2.1096 2.83707 2.1096 2.99468L 5.39121 2.99468C 5.15681 2.52184 5.00055 2.2066 4.76615 1.89137Z"/>
        <path id="path10_fill" d="M 0.468806 1.33973C 0.703207 1.0245 0.937608 0.788078 1.25014 0.551656C 1.56268 0.394042 1.95334 0.236427 2.34401 0.15762C 2.73468 0.0788122 3.12534 -4.81002e-06 3.51601 -4.81002e-06C 3.90668 -4.81002e-06 4.21921 0 4.60988 0.0788074C 5.00054 0.157615 5.31308 0.236417 5.62562 0.394032C 5.93815 0.551647 6.17255 0.788071 6.40695 1.02449C 6.64135 1.26092 6.71949 1.65496 6.71949 2.1278L 6.71949 5.91055C 6.71949 6.22578 6.71949 6.54102 6.79762 6.85625C 6.79762 7.17148 6.87576 7.40789 7.03202 7.56551L 5.00054 7.56551C 5.00054 7.4867 4.92242 7.32909 4.92242 7.25028C 4.92242 7.17148 4.84428 7.01386 4.84428 6.85625C 4.53175 7.17148 4.14108 7.40789 3.75041 7.56551C 3.28161 7.72312 2.89095 7.80193 2.42215 7.80193C 2.10961 7.80193 1.71893 7.72313 1.48453 7.64432C 1.172 7.56551 0.937598 7.4079 0.703197 7.25028C 0.468797 7.09267 0.312532 6.85624 0.156265 6.54101C -2.38678e-06 6.30459 -6.66207e-14 5.91055 -6.66207e-14 5.59532C -6.66207e-14 5.20129 0.078136 4.80725 0.234403 4.57082C 0.39067 4.3344 0.546935 4.09798 0.781336 3.94036C 1.01574 3.78275 1.25014 3.62513 1.56267 3.54633C 1.87521 3.46752 2.18775 3.38871 2.42215 3.38871C 2.73468 3.30991 3.04721 3.30991 3.28161 3.30991C 3.59414 3.30991 3.82854 3.2311 4.06294 3.15229C 4.29734 3.07348 4.45361 2.99468 4.60988 2.91588C 4.76614 2.83707 4.76615 2.67945 4.76615 2.44303C 4.76615 2.20661 4.76615 2.04899 4.68801 1.89138C 4.60988 1.73376 4.53175 1.65495 4.37549 1.57614C 4.21922 1.49734 4.14108 1.49734 3.98482 1.41853C 3.82855 1.41853 3.67228 1.41853 3.51601 1.41853C 3.12534 1.41853 2.81281 1.49734 2.57841 1.65495C 2.34401 1.81257 2.18774 2.1278 2.18774 2.52184L 0.156265 2.52184C 0.156265 2.049 0.312539 1.65496 0.468806 1.33973ZM 4.45361 4.17679C 4.29734 4.2556 4.21921 4.2556 4.06294 4.2556C 3.90668 4.2556 3.75042 4.3344 3.59415 4.3344C 3.43788 4.3344 3.28161 4.41321 3.12534 4.41321C 2.96908 4.41321 2.8128 4.49202 2.65654 4.49202C 2.50027 4.57083 2.42214 4.57083 2.26587 4.64964C 2.18774 4.72844 2.10961 4.80725 2.03148 4.96486C 1.95334 5.12248 1.95334 5.2801 1.95334 5.43771C 1.95334 5.59533 1.95334 5.75293 2.03148 5.91055C 2.10961 6.06816 2.18774 6.14698 2.26587 6.22578C 2.344 6.30459 2.50027 6.3834 2.65654 6.3834C 2.8128 6.3834 2.96908 6.46221 3.12534 6.46221C 3.51601 6.46221 3.82854 6.3834 4.06294 6.22578C 4.29734 6.06817 4.45362 5.91055 4.53175 5.75294C 4.60988 5.59532 4.68801 5.3589 4.68801 5.20129C 4.68801 5.04367 4.68801 4.88605 4.68801 4.72844L 4.68801 3.94036C 4.68801 4.09798 4.60988 4.17679 4.45361 4.17679Z"/>
        <path id="path11_fill" d="M 1.95334 0.157612L 1.95334 1.49734C 2.03148 1.26091 2.18775 1.0245 2.34401 0.866886C 2.50028 0.709271 2.65654 0.472844 2.89094 0.394037C 3.12535 0.236422 3.28162 0.15762 3.51602 0.0788122C 3.75042 4.80885e-06 3.98481 2.23984e-14 4.21921 2.23984e-14C 4.37548 2.23984e-14 4.53175 4.80885e-06 4.68802 0.0788122L 4.68802 1.97018C 4.60989 1.97018 4.45361 1.97018 4.37548 1.89137C 4.21921 1.89137 4.14108 1.89137 3.98481 1.89137C 3.59414 1.89137 3.28161 1.97019 3.04721 2.049C 2.81281 2.20661 2.57841 2.36422 2.42214 2.52183C 2.26587 2.75826 2.18774 2.99468 2.10961 3.23111C 2.03148 3.54634 2.03147 3.86156 2.03147 4.17679L 2.03147 7.4867L 4.76889e-06 7.4867L 4.76889e-06 0.157612L 1.95334 0.157612Z"/>
        <path id="path12_fill" d="M 4.53175 2.2066L 4.53175 3.54633L 3.04721 3.54633L 3.04721 7.17147C 3.04721 7.4867 3.12534 7.72312 3.20348 7.88073C 3.28161 7.95954 3.51601 8.03836 3.90667 8.03836C 3.98481 8.03836 4.14108 8.03836 4.21922 8.03836C 4.29735 8.03836 4.45361 8.03835 4.53175 7.95954L 4.53175 9.53569C 4.37548 9.53569 4.14108 9.6145 3.98481 9.6145C 3.75041 9.6145 3.59414 9.6145 3.35974 9.6145C 3.04721 9.6145 2.73468 9.6145 2.50028 9.53569C 2.18775 9.45688 1.95334 9.37807 1.79707 9.29927C 1.56267 9.14165 1.40641 8.98404 1.32828 8.74762C 1.17201 8.5112 1.172 8.19596 1.172 7.88073L 1.172 3.54633L -4.7689e-06 3.54633L -4.7689e-06 2.2066L 1.172 2.2066L 1.172 -4.81002e-06L 3.20348 -4.81002e-06L 3.20348 2.2066L 4.53175 2.2066Z"/>
        <path id="path13_fill" d="M 4.76615 0L 7.65709 7.88074L 5.86002 7.88074L 5.23495 6.14698L 2.34401 6.14698L 1.71894 7.88074L -1.19222e-06 7.88074L 2.96907 0L 4.76615 0ZM 4.84428 4.88605L 3.82855 1.97018L 2.81281 4.88605L 4.84428 4.88605Z"/>
        <path id="path14_fill" d="M 1.87521 4.25559C 1.95334 4.41321 2.03148 4.49202 2.10961 4.57083C 2.18775 4.64964 2.34401 4.72844 2.50028 4.72844C 2.65655 4.72844 2.81281 4.80724 2.96907 4.80724C 3.04721 4.80724 3.20348 4.80724 3.28162 4.80724C 3.43788 4.80724 3.51601 4.72844 3.59414 4.64963C 3.67228 4.57082 3.75041 4.49201 3.82855 4.41321C 3.90668 4.3344 3.90667 4.17679 3.90667 4.09798C 3.90667 3.86156 3.75041 3.70395 3.43788 3.54633C 3.12535 3.46753 2.65655 3.3099 2.10961 3.2311C 1.87521 3.15229 1.64081 3.15229 1.48454 3.07348C 1.25014 2.99468 1.09387 2.91587 0.937608 2.83706C 0.781341 2.75825 0.625073 2.60064 0.54694 2.44302C 0.468806 2.28541 0.390663 2.049 0.390663 1.81257C 0.390663 1.41854 0.468799 1.18211 0.625066 0.945688C 0.781333 0.709266 0.937598 0.551654 1.172 0.394039C 1.4064 0.236424 1.6408 0.15761 1.95333 0.0788026C 2.26587 -4.80885e-06 2.57841 2.40501e-06 2.81281 2.40501e-06C 3.04721 2.40501e-06 3.43788 -4.80885e-06 3.67228 0.0788026C 3.98482 0.15761 4.21922 0.236424 4.45362 0.394039C 4.68802 0.551654 4.84428 0.709266 5.00055 0.945688C 5.15682 1.18211 5.23495 1.49734 5.23495 1.81257L 3.75041 1.81257C 3.75041 1.49734 3.59415 1.33973 3.43788 1.18211C 3.20348 1.10331 2.96907 1.0245 2.73467 1.0245C 2.65654 1.0245 2.57841 1.0245 2.42214 1.0245C 2.34401 1.0245 2.26588 1.02449 2.10961 1.1033C 2.03148 1.1033 1.95334 1.18211 1.87521 1.26091C 1.79707 1.33972 1.79707 1.41853 1.79707 1.57615C 1.79707 1.73376 1.8752 1.81257 1.95333 1.89137C 2.03147 1.97018 2.18774 2.04899 2.344 2.1278C 2.50027 2.20661 2.73468 2.2066 2.89095 2.28541C 3.12535 2.36422 3.28161 2.36422 3.51601 2.44302C 3.75041 2.52183 3.98481 2.52184 4.14108 2.60065C 4.37548 2.67946 4.53174 2.75826 4.68801 2.91587C 4.84428 3.07349 5.00054 3.1523 5.07868 3.38872C 5.15681 3.54634 5.23495 3.78275 5.23495 4.01917C 5.23495 4.41321 5.15682 4.72845 5.00055 4.96487C 4.84428 5.20129 4.68802 5.4377 4.45362 5.59532C 4.21922 5.75293 3.90668 5.83175 3.59414 5.91055C 3.28161 5.98936 2.96908 5.98935 2.65654 5.98935C 2.34401 5.98935 2.03148 5.98936 1.71894 5.91055C 1.40641 5.83175 1.09387 5.75293 0.859469 5.59532C 0.625069 5.4377 0.390666 5.20129 0.234398 4.96487C 0.0781312 4.72845 -4.7689e-06 4.41321 -4.7689e-06 4.01917L 1.48454 4.01917C 1.79707 4.01917 1.79707 4.17679 1.87521 4.25559Z"/>
        <path id="path15_fill" d="M 1.87521 4.25559C 1.95334 4.41321 2.03148 4.49202 2.10961 4.57083C 2.18775 4.64964 2.34401 4.72844 2.50028 4.72844C 2.65655 4.72844 2.81281 4.80724 2.96907 4.80724C 3.04721 4.80724 3.20348 4.80724 3.28162 4.80724C 3.43788 4.80724 3.51601 4.72844 3.59414 4.64963C 3.67228 4.57082 3.75041 4.49201 3.82855 4.41321C 3.90668 4.3344 3.90667 4.17679 3.90667 4.09798C 3.90667 3.86156 3.75041 3.70395 3.43788 3.54633C 3.12535 3.46753 2.65655 3.3099 2.10961 3.2311C 1.87521 3.15229 1.64081 3.15229 1.48454 3.07348C 1.25014 2.99468 1.09387 2.91587 0.937608 2.83706C 0.781341 2.75825 0.625073 2.60064 0.54694 2.44302C 0.468806 2.28541 0.390663 2.049 0.390663 1.81257C 0.390663 1.41854 0.468799 1.18211 0.625066 0.945688C 0.781333 0.709266 0.937598 0.551654 1.172 0.394039C 1.4064 0.236424 1.6408 0.15761 1.95333 0.0788026C 2.26587 -4.80885e-06 2.57841 2.40501e-06 2.81281 2.40501e-06C 3.12534 2.40501e-06 3.43788 -4.80885e-06 3.67228 0.0788026C 3.98482 0.15761 4.21922 0.236424 4.45362 0.394039C 4.68802 0.551654 4.84428 0.709266 5.00055 0.945688C 5.15682 1.18211 5.23495 1.49734 5.23495 1.81257L 3.75041 1.81257C 3.75041 1.49734 3.59415 1.33973 3.43788 1.18211C 3.20348 1.10331 2.96907 1.0245 2.73467 1.0245C 2.65654 1.0245 2.57841 1.0245 2.42214 1.0245C 2.34401 1.0245 2.26588 1.02449 2.10961 1.1033C 2.03148 1.1033 1.95334 1.18211 1.87521 1.26091C 1.79707 1.33972 1.79707 1.41853 1.79707 1.57615C 1.79707 1.73376 1.8752 1.81257 1.95333 1.89137C 2.03147 1.97018 2.18774 2.04899 2.344 2.1278C 2.50027 2.20661 2.65655 2.2066 2.89095 2.28541C 3.12535 2.36422 3.28161 2.36422 3.51601 2.44302C 3.75041 2.52183 3.98481 2.52184 4.14108 2.60065C 4.37548 2.67946 4.53174 2.75826 4.68801 2.91587C 4.84428 3.07349 5.00054 3.1523 5.07868 3.38872C 5.15681 3.54634 5.23495 3.78275 5.23495 4.01917C 5.23495 4.41321 5.15682 4.72845 5.00055 4.96487C 4.84428 5.20129 4.68802 5.4377 4.45362 5.59532C 4.21922 5.75293 3.90668 5.83175 3.59414 5.91055C 3.28161 5.98936 2.96908 5.98935 2.65654 5.98935C 2.34401 5.98935 2.03148 5.98936 1.71894 5.91055C 1.40641 5.83175 1.09387 5.75293 0.859469 5.59532C 0.625069 5.4377 0.390666 5.20129 0.234398 4.96487C 0.0781312 4.72845 -4.7689e-06 4.41321 -4.7689e-06 4.01917L 1.48454 4.01917C 1.79707 4.01917 1.79707 4.17679 1.87521 4.25559Z"/>
        <path id="path16_fill" d="M 0.234398 1.81256C 0.390666 1.41853 0.546935 1.1033 0.859469 0.866879C 1.09387 0.630457 1.4064 0.394032 1.79707 0.236417C 2.18774 0.0788026 2.57841 4.81002e-06 2.96907 4.81002e-06C 3.43788 4.81002e-06 3.82854 0.0788026 4.14108 0.236417C 4.53174 0.394032 4.84428 0.551649 5.07868 0.866879C 5.31308 1.1033 5.54748 1.41853 5.70375 1.81256C 5.86002 2.2066 5.93815 2.60064 5.93815 3.07349C 5.93815 3.54633 5.86002 3.94037 5.70375 4.33441C 5.54748 4.72845 5.39121 5.04367 5.07868 5.2801C 4.84428 5.51652 4.53174 5.75294 4.14108 5.91056C 3.75041 6.06817 3.35974 6.14697 2.96907 6.14697C 2.50027 6.14697 2.1096 6.06817 1.79707 5.91056C 1.4064 5.75294 1.172 5.59533 0.859469 5.2801C 0.625069 5.04367 0.390666 4.72845 0.234398 4.33441C 0.0781312 3.94037 -4.76889e-06 3.54633 -4.76889e-06 3.07349C -4.76889e-06 2.60064 0.0781312 2.12779 0.234398 1.81256ZM 1.64081 3.70395C 1.71894 3.94037 1.79707 4.09798 1.87521 4.2556C 1.95334 4.41321 2.10961 4.57083 2.26588 4.64963C 2.42214 4.72844 2.65655 4.80725 2.89095 4.80725C 3.12535 4.80725 3.35974 4.72844 3.51601 4.64963C 3.67227 4.57083 3.82854 4.41321 3.90667 4.2556C 3.98481 4.09798 4.06294 3.86156 4.14108 3.70395C 4.21921 3.46753 4.21922 3.2311 4.21922 3.07349C 4.21922 2.83707 4.21921 2.60065 4.14108 2.36423C 4.06294 2.1278 3.98481 1.97018 3.90667 1.81256C 3.82854 1.65495 3.67227 1.49734 3.51601 1.41853C 3.35974 1.33972 3.12535 1.26092 2.89095 1.26092C 2.65655 1.26092 2.42214 1.33972 2.26588 1.41853C 2.10961 1.49734 1.95334 1.65495 1.87521 1.81256C 1.79707 1.97018 1.71894 2.20661 1.64081 2.36423C 1.56267 2.60065 1.56267 2.83707 1.56267 3.07349C 1.56267 3.2311 1.56267 3.46753 1.64081 3.70395Z"/>
        <path id="path17_fill" d="M 2.89094 1.26092C 2.65654 1.26092 2.42214 1.33973 2.26587 1.41853C 2.1096 1.49734 1.95333 1.65495 1.8752 1.89137C 1.79707 2.04899 1.71894 2.28541 1.64081 2.52183C 1.56268 2.75826 1.56267 2.91587 1.56267 3.15229C 1.56267 3.38872 1.56268 3.54633 1.64081 3.78276C 1.71894 4.01918 1.71893 4.17679 1.8752 4.3344C 1.95333 4.49202 2.1096 4.64963 2.26587 4.72844C 2.42214 4.80725 2.65654 4.88605 2.89094 4.88605C 3.28161 4.88605 3.51601 4.80725 3.75041 4.57083C 3.98481 4.33441 4.06295 4.09798 4.14108 3.70394L 5.62562 3.70394C 5.54748 4.49202 5.23495 5.04367 4.76615 5.4377C 4.29735 5.83174 3.67228 6.06816 2.89094 6.06816C 2.50027 6.06816 2.1096 5.98935 1.71894 5.83174C 1.32827 5.67412 1.09387 5.51652 0.781336 5.20129C 0.546935 4.96487 0.312537 4.64963 0.234403 4.25559C 0.078136 3.86156 0 3.54633 0 3.07348C 0 2.60064 0.0781312 2.20661 0.156265 1.81257C 0.312532 1.41853 0.468797 1.10331 0.703197 0.866886C 0.937598 0.630464 1.25014 0.394039 1.64081 0.236424C 2.03148 0.0788098 2.42214 2.23984e-14 2.89094 2.23984e-14C 3.20347 2.23984e-14 3.51601 0.0788049 3.82854 0.157612C 4.14107 0.23642 4.45361 0.394034 4.68801 0.551649C 4.92242 0.709264 5.15682 0.945693 5.31309 1.26092C 5.46935 1.49734 5.54749 1.81257 5.54749 2.20661L 4.06294 2.20661C 3.90668 1.57615 3.51601 1.26092 2.89094 1.26092Z"/>
        <path id="path18_fill" d="M 2.38445e-06 1.26092L 2.38445e-06 4.81002e-06L 1.56267 4.81002e-06L 1.56267 1.26092L 2.38445e-06 1.26092ZM 1.56267 2.1278L 1.56267 7.80193L 2.38445e-06 7.80193L 2.38445e-06 2.1278L 1.56267 2.1278Z"/>
        <path id="path19_fill" d="M 3.67227 1.65496L 3.67227 2.67946L 2.50027 2.67946L 2.50027 5.51651C 2.50027 5.75293 2.57841 5.98935 2.65655 6.06816C 2.73468 6.14697 2.89095 6.22579 3.20348 6.22579C 3.28161 6.22579 3.35975 6.22579 3.43788 6.22579C 3.51602 6.22579 3.59414 6.22579 3.67227 6.22579L 3.67227 7.4079C 3.51601 7.4079 3.35975 7.40789 3.20348 7.4867C 3.04721 7.4867 2.89094 7.4867 2.73467 7.4867C 2.50027 7.4867 2.26588 7.4867 2.03148 7.4079C 1.79707 7.4079 1.64081 7.32908 1.48454 7.25027C 1.32828 7.17146 1.17201 7.01385 1.09387 6.85624C 1.01574 6.69862 0.937598 6.4622 0.937598 6.14697L 0.937598 2.75826L -2.38445e-06 2.75826L -2.38445e-06 1.73376L 0.937598 1.73376L 0.937598 -2.40501e-06L 2.50027 -2.40501e-06L 2.50027 1.73376L 3.67227 1.73376L 3.67227 1.65496Z"/>
        <path id="path20_fill" d="M -4.7689e-06 1.26092L -4.7689e-06 4.81002e-06L 1.56267 4.81002e-06L 1.56267 1.26092L -4.7689e-06 1.26092ZM 1.56267 2.1278L 1.56267 7.80193L -4.7689e-06 7.80193L -4.7689e-06 2.1278L 1.56267 2.1278Z"/>
        <path id="path21_fill" d="M 0.234401 1.81256C 0.390668 1.41853 0.546937 1.1033 0.859472 0.866879C 1.09387 0.630457 1.4064 0.394032 1.79707 0.236417C 2.18774 0.0788026 2.57841 4.81002e-06 2.96908 4.81002e-06C 3.43788 4.81002e-06 3.82855 0.0788026 4.14108 0.236417C 4.53175 0.394032 4.84428 0.551649 5.07868 0.866879C 5.31308 1.1033 5.54748 1.41853 5.70375 1.81256C 5.86002 2.2066 5.93815 2.60064 5.93815 3.07349C 5.93815 3.54633 5.86002 3.94037 5.70375 4.33441C 5.54748 4.72845 5.39121 5.04367 5.07868 5.2801C 4.84428 5.51652 4.53175 5.75294 4.14108 5.91056C 3.75041 6.06817 3.35974 6.14697 2.96908 6.14697C 2.50027 6.14697 2.10961 6.06817 1.79707 5.91056C 1.4064 5.75294 1.17201 5.59533 0.859472 5.2801C 0.625071 5.04367 0.390668 4.72845 0.234401 4.33441C 0.0781336 3.94037 -2.38445e-06 3.54633 -2.38445e-06 3.07349C -2.38445e-06 2.60064 0.0781336 2.12779 0.234401 1.81256ZM 1.64081 3.70395C 1.71894 3.94037 1.79708 4.09798 1.87521 4.2556C 1.95334 4.41321 2.10961 4.57083 2.26588 4.64963C 2.42215 4.72844 2.65654 4.80725 2.89094 4.80725C 3.12534 4.80725 3.35974 4.72844 3.51601 4.64963C 3.67228 4.57083 3.82854 4.41321 3.90668 4.2556C 3.98481 4.09798 4.06295 3.86156 4.14108 3.70395C 4.21921 3.46753 4.21922 3.2311 4.21922 3.07349C 4.21922 2.83707 4.21921 2.60065 4.14108 2.36423C 4.06295 2.1278 3.98481 1.97018 3.90668 1.81256C 3.82854 1.65495 3.67228 1.49734 3.51601 1.41853C 3.35974 1.33972 3.12534 1.26092 2.89094 1.26092C 2.65654 1.26092 2.42215 1.33972 2.26588 1.41853C 2.10961 1.49734 1.95334 1.65495 1.87521 1.81256C 1.79708 1.97018 1.71894 2.20661 1.64081 2.36423C 1.56267 2.60065 1.56267 2.83707 1.56267 3.07349C 1.56267 3.2311 1.56267 3.46753 1.64081 3.70395Z"/>
        <path id="path22_fill" d="M 1.6408 0.157617L 1.6408 0.945691C 1.8752 0.630461 2.1096 0.394032 2.42214 0.236417C 2.73467 0.0788026 3.04721 4.81002e-06 3.35975 4.81002e-06C 3.75042 4.81002e-06 4.14108 0.0788098 4.37548 0.157617C 4.60988 0.236424 4.84428 0.394032 5.00055 0.630454C 5.15681 0.866876 5.23495 1.10331 5.31309 1.33973C 5.39122 1.65496 5.39121 1.97018 5.39121 2.28541L 5.39121 5.83174L 3.82854 5.83174L 3.82854 2.60064C 3.82854 2.12779 3.75041 1.81257 3.59414 1.57615C 3.43787 1.33973 3.20347 1.26092 2.8128 1.26092C 2.42214 1.26092 2.1096 1.41853 1.8752 1.65495C 1.71894 1.89137 1.56267 2.36422 1.56267 2.91587L 1.56267 5.91056L 2.38445e-06 5.91056L 2.38445e-06 0.236417L 1.6408 0.236417L 1.6408 0.157617Z"/>
        <path id="path23_fill" d="M 6.34427 7.4867C 5.2504 8.11716 4.39092 9.6933 4.85973 11.2694C 6.34426 9.14165 10.7198 11.033 12.2043 6.06817C 11.2667 6.85624 9.93841 7.09266 9.31334 7.01386C 11.7355 5.98936 13.0638 2.44303 10.9541 4.81002e-06C 11.5792 2.83707 7.98507 3.15229 5.09413 3.62514C -0.218955 4.64963 -1.15655 9.6145 1.26559 12.2151C 0.953054 9.29927 3.3752 7.4867 6.34427 7.4867Z"/>
        <path id="path24_fill" d="M 18.3614 13.2396C 18.5177 10.7178 18.5958 8.43239 19.1427 6.77744L 14.611 6.77744C 15.1579 8.43239 15.2361 10.7178 15.3923 13.2396C 15.6267 16.3131 16.1737 25.2184 16.1737 25.2184L 17.58 25.2184C 17.58 25.2184 18.127 16.3131 18.3614 13.2396ZM 10.3136 3.46753C 10.3136 3.46753 10.7043 4.49202 10.7043 5.43771L 23.0494 5.43771C 23.0494 4.41322 23.4401 3.46753 23.4401 3.46753L 17.58 3.46753C 18.3614 2.1278 20.3147 -2.40501e-06 24.2995 -2.40501e-06C 28.675 -2.40501e-06 33.5974 3.62514 33.5974 9.92973C 33.5974 19.4654 23.7526 26.2429 16.7987 30.6561C 9.92296 26.2429 -4.76889e-06 19.3866 -4.76889e-06 9.92973C -4.76889e-06 3.54633 4.92242 -2.40501e-06 9.2979 -2.40501e-06C 13.3608 -2.40501e-06 15.236 2.1278 16.0174 3.46753L 10.3136 3.46753Z"/>
        <path id="path25_fill" d="M 3.75041 6.4622C 3.90667 3.94037 3.98481 1.65496 4.53174 2.40501e-06L 4.7689e-06 2.40501e-06C 0.54694 1.65496 0.625073 3.94037 0.781341 6.4622C 1.01574 9.53569 1.56268 18.5197 1.56268 18.5197L 2.96907 18.5197C 2.96907 18.5197 3.51601 9.6145 3.75041 6.4622Z"/>
        <path id="path26_fill" d="M 4.7689e-06 4.81002e-06C 4.7689e-06 4.81002e-06 0.390673 1.0245 0.390673 1.97019L 12.7358 1.97019C 12.7358 0.945693 13.1264 4.81002e-06 13.1264 4.81002e-06L 4.7689e-06 4.81002e-06Z"/>
        <path id="path27_fill" d="M 4.76615 4.81002e-06L 7.65709 7.88074L 5.86002 7.88074L 5.23495 6.14697L 2.34401 6.14697L 1.71894 7.88074L 0 7.88074L 2.96908 4.81002e-06L 4.76615 4.81002e-06ZM 4.84428 4.80725L 3.82854 1.89138L 2.81281 4.80725L 4.84428 4.80725Z"/>
        <path id="path28_fill" d="M 1.48453 0.15761L 1.48453 0.945684C 1.71893 0.630454 1.95334 0.394037 2.18774 0.236422C 2.50028 0.0788074 2.81281 -2.40501e-06 3.20348 -2.40501e-06C 3.59415 -2.40501e-06 3.90667 0.0788074 4.21921 0.236422C 4.53174 0.394037 4.76615 0.630454 4.92242 0.945684C 5.07869 0.709261 5.31308 0.472849 5.62562 0.315234C 5.93815 0.15762 6.25069 -2.40501e-06 6.64135 -2.40501e-06C 6.95389 -2.40501e-06 7.18829 2.40149e-06 7.50083 0.0788098C 7.73523 0.157617 7.96962 0.23642 8.12589 0.394034C 8.28216 0.551649 8.43842 0.788074 8.51656 1.0245C 8.59469 1.26092 8.67283 1.57614 8.67283 1.97018L 8.67283 5.75294L 7.11016 5.75294L 7.11016 2.52183C 7.11016 2.36422 7.11016 2.1278 7.11016 1.97018C 7.11016 1.81257 7.03202 1.65496 6.95388 1.49734C 6.87575 1.33973 6.79762 1.26092 6.64135 1.18211C 6.48509 1.1033 6.32882 1.10331 6.09442 1.10331C 5.86002 1.10331 5.70376 1.18211 5.54749 1.26092C 5.39122 1.33973 5.31308 1.41853 5.23495 1.57614C 5.15681 1.73376 5.07868 1.89138 5.07868 2.04899C 5.07868 2.20661 5.07868 2.36422 5.07868 2.60064L 5.07868 5.75294L 3.51601 5.75294L 3.51601 2.52183C 3.51601 2.36422 3.51601 2.20661 3.51601 2.04899C 3.51601 1.89138 3.51601 1.73376 3.43787 1.57614C 3.35974 1.41853 3.28162 1.33973 3.20348 1.26092C 3.04721 1.18211 2.89094 1.10331 2.65654 1.10331C 2.5784 1.10331 2.50027 1.1033 2.34401 1.18211C 2.18774 1.18211 2.10961 1.26091 2.03148 1.33972C 1.95334 1.41853 1.79707 1.57614 1.71894 1.73376C 1.6408 1.89137 1.56267 2.1278 1.56267 2.44303L 1.56267 5.75294L -6.66207e-14 5.75294L -6.66207e-14 0.0788098L 1.48453 0.0788098L 1.48453 0.15761Z"/>
        <path id="path29_fill" d="M 1.95334 4.41321C 2.18774 4.64963 2.50028 4.72844 2.96908 4.72844C 3.28162 4.72844 3.51602 4.64963 3.75042 4.49202C 3.98482 4.3344 4.14108 4.17678 4.14108 4.01917L 5.54748 4.01917C 5.31308 4.72844 5.00055 5.20129 4.53175 5.51652C 4.06295 5.83175 3.51601 5.98935 2.89094 5.98935C 2.42214 5.98935 2.03147 5.91056 1.71894 5.75294C 1.32827 5.59533 1.09387 5.43771 0.781338 5.12248C 0.546937 4.88606 0.312539 4.57083 0.234405 4.17679C 0.0781383 3.78276 2.38445e-06 3.38872 2.38445e-06 2.99468C 2.38445e-06 2.60065 0.0781383 2.20661 0.234405 1.81257C 0.390673 1.41854 0.54693 1.1033 0.859465 0.866876C 1.09387 0.630454 1.40641 0.394042 1.79708 0.236427C 2.18774 0.0788122 2.57841 2.40501e-06 2.96908 2.40501e-06C 3.43788 2.40501e-06 3.90668 0.0788049 4.21921 0.315227C 4.60988 0.472842 4.84428 0.788071 5.07868 1.1033C 5.31309 1.41853 5.46935 1.81257 5.54748 2.20661C 5.62561 2.60065 5.70375 2.99468 5.62562 3.46752L 1.56267 3.46752C 1.56267 3.78275 1.71894 4.17678 1.95334 4.41321ZM 3.67228 1.33973C 3.51601 1.1033 3.20347 1.0245 2.8128 1.0245C 2.5784 1.0245 2.34401 1.10331 2.18774 1.18211C 2.03148 1.26092 1.87521 1.33972 1.79708 1.49734C 1.71894 1.65495 1.64081 1.73376 1.56267 1.89137C 1.48454 2.04899 1.48454 2.1278 1.48454 2.28541L 3.98481 2.28541C 3.98481 1.89137 3.90668 1.57615 3.67228 1.33973Z"/>
        <path id="path30_fill" d="M 1.48454 0.15761L 1.48454 1.18211C 1.56268 1.02449 1.64081 0.866886 1.79707 0.709271C 1.95334 0.551656 2.03147 0.394042 2.18774 0.315234C 2.34401 0.236427 2.50028 0.157617 2.73468 0.0788098C 2.89095 2.40149e-06 3.12534 -2.40501e-06 3.28161 -2.40501e-06C 3.35974 -2.40501e-06 3.516 2.40149e-06 3.59414 0.0788098L 3.59414 1.49734C 3.516 1.49734 3.43788 1.49734 3.35974 1.49734C 3.28161 1.49734 3.12535 1.49734 3.04721 1.49734C 2.73468 1.49734 2.50028 1.57615 2.34402 1.65496C 2.10962 1.73376 1.95334 1.89138 1.87521 2.04899C 1.71894 2.20661 1.6408 2.44303 1.6408 2.60064C 1.56266 2.83706 1.56268 3.07348 1.56268 3.3099L 1.56268 5.91055L 9.53779e-06 5.91055L 9.53779e-06 0.236422L 1.48454 0.236422L 1.48454 0.15761Z"/>
        <path id="path31_fill" d="M 9.53779e-06 1.26092L 9.53779e-06 4.81002e-06L 1.56268 4.81002e-06L 1.56268 1.26092L 9.53779e-06 1.26092ZM 1.56268 2.2066L 1.56268 7.88074L 9.53779e-06 7.88074L 9.53779e-06 2.2066L 1.56268 2.2066Z"/>
        <path id="path32_fill" d="M 2.89095 1.26092C 2.65655 1.26092 2.42214 1.33972 2.26587 1.41853C 2.1096 1.49733 1.95333 1.65495 1.8752 1.89138C 1.79707 2.04899 1.71894 2.28542 1.64081 2.52184C 1.56268 2.75826 1.56267 2.91588 1.56267 3.1523C 1.56267 3.38872 1.56268 3.54633 1.64081 3.78275C 1.71894 4.01917 1.71893 4.17679 1.8752 4.33441C 1.95333 4.49202 2.1096 4.64964 2.26587 4.72845C 2.42214 4.80725 2.65655 4.88606 2.89095 4.88606C 3.28162 4.88606 3.516 4.80724 3.7504 4.57082C 3.9848 4.3344 4.06294 4.09798 4.14107 3.70395L 5.62563 3.70395C 5.54749 4.49202 5.23495 5.04367 4.76615 5.43771C 4.29735 5.83174 3.67229 6.06817 2.89095 6.06817C 2.50028 6.06817 2.10962 5.98936 1.71895 5.83174C 1.32828 5.67413 1.09387 5.51651 0.781336 5.20128C 0.546935 4.96486 0.312525 4.64963 0.234391 4.2556C 0.078124 3.86156 0 3.54633 0 3.07349C 0 2.60064 0.0781431 2.2066 0.156277 1.81256C 0.312544 1.41853 0.468797 1.1033 0.703197 0.866878C 0.937598 0.630456 1.25014 0.394032 1.64081 0.236417C 2.03148 0.0788025 2.42215 4.81002e-06 2.89095 4.81002e-06C 3.20349 4.81002e-06 3.51601 0.0788098 3.82854 0.157617C 4.14107 0.236424 4.45361 0.394039 4.68801 0.551654C 4.92242 0.709269 5.15681 0.945686 5.31307 1.26092C 5.46934 1.49734 5.54749 1.81256 5.54749 2.2066L 4.06296 2.2066C 3.90669 1.57614 3.59415 1.26092 2.89095 1.26092Z"/>
        <path id="path33_fill" d="M 0.312534 0.945683C 0.468801 0.709261 0.703193 0.472842 0.937593 0.394034C 1.17199 0.23642 1.48453 0.157617 1.79707 0.0788098C 2.1096 2.40149e-06 2.42215 -2.40501e-06 2.73468 -2.40501e-06C 3.04721 -2.40501e-06 3.28162 2.40149e-06 3.59415 0.0788098C 3.90669 0.157617 4.14109 0.236427 4.37549 0.315234C 4.60989 0.394042 4.84428 0.630456 5.00055 0.788071C 5.15682 1.02449 5.23494 1.26092 5.23494 1.65496L 5.23494 4.64964C 5.23494 4.88606 5.23494 5.12248 5.31308 5.3589C 5.31308 5.59532 5.39122 5.75293 5.46936 5.91055L 3.90668 5.91055C 3.90668 5.83174 3.82855 5.75293 3.82855 5.67412C 3.82855 5.59532 3.82855 5.51651 3.82855 5.3589C 3.59414 5.59532 3.28161 5.83174 2.96907 5.91055C 2.65654 5.98936 2.26588 6.06816 1.95334 6.06816C 1.71894 6.06816 1.40641 6.06817 1.17201 5.98936C 0.937608 5.91055 0.703193 5.83174 0.546925 5.67412C 0.390658 5.51651 0.234391 5.3589 0.156258 5.12248C 0.078124 4.88605 4.76889e-06 4.64963 4.76889e-06 4.3344C 4.76889e-06 4.01917 0.078124 3.78275 0.156258 3.54633C 0.234391 3.30991 0.390663 3.1523 0.625064 3.07349C 0.781331 2.91588 1.01575 2.83706 1.25015 2.75826C 1.48455 2.67945 1.71894 2.67945 1.95334 2.60064C 2.18775 2.60064 2.42214 2.52183 2.65654 2.52183C 2.89094 2.52183 3.0472 2.44303 3.2816 2.44303C 3.43787 2.36422 3.59414 2.36423 3.67227 2.28542C 3.7504 2.20661 3.82855 2.049 3.82855 1.89138C 3.82855 1.73377 3.82854 1.57615 3.75041 1.49734C 3.67227 1.41854 3.59415 1.33973 3.51602 1.26092C 3.43788 1.18211 3.28162 1.18211 3.20349 1.18211C 3.04722 1.18211 2.96909 1.18211 2.81282 1.18211C 2.50028 1.18211 2.26586 1.26092 2.1096 1.41853C 1.95333 1.57615 1.79707 1.73376 1.79707 2.04899L 0.234396 2.04899C 0.0781288 1.49734 0.156267 1.18211 0.312534 0.945683ZM 3.43788 3.15229C 3.35974 3.15229 3.20348 3.2311 3.12535 3.2311C 3.04721 3.2311 2.89095 3.3099 2.73468 3.3099C 2.57841 3.3099 2.50028 3.30991 2.34401 3.38872C 2.26588 3.38872 2.10962 3.46753 2.03148 3.46753C 1.95335 3.46753 1.79706 3.54633 1.71893 3.62514C 1.6408 3.70395 1.56267 3.78276 1.48454 3.86157C 1.4064 3.94037 1.4064 4.09799 1.4064 4.2556C 1.4064 4.41322 1.4064 4.49202 1.48454 4.57083C 1.56267 4.64963 1.6408 4.72844 1.71893 4.80725C 1.79706 4.88606 1.87522 4.88605 2.03148 4.88605C 2.10962 4.88605 2.26588 4.88605 2.42215 4.88605C 2.73468 4.88605 2.96908 4.80725 3.12535 4.72844C 3.28162 4.64963 3.43788 4.49202 3.51602 4.3344C 3.59415 4.17679 3.67227 4.01918 3.67227 3.86157C 3.67227 3.70395 3.67227 3.62514 3.67227 3.54633L 3.67227 2.99468C 3.59414 3.07349 3.51601 3.15229 3.43788 3.15229Z"/>
        <path id="path34_fill" d="M 1.64081 0.15761L 1.64081 0.945683C 1.87522 0.630454 2.10962 0.394037 2.42215 0.236422C 2.73468 0.0788074 3.0472 -2.40501e-06 3.35974 -2.40501e-06C 3.75041 -2.40501e-06 4.14109 0.0788025 4.37549 0.15761C 4.60989 0.236417 4.84428 0.394037 5.00055 0.630459C 5.15682 0.866881 5.23495 1.1033 5.31308 1.33972C 5.39121 1.65495 5.39122 1.97019 5.39122 2.28542L 5.39122 5.83175L 3.82855 5.83175L 3.82855 2.60064C 3.82855 2.1278 3.75042 1.81257 3.59415 1.57614C 3.43789 1.33972 3.20349 1.26092 2.81282 1.26092C 2.42215 1.26092 2.10961 1.41853 1.87521 1.65496C 1.71894 1.89138 1.56268 2.36422 1.56268 2.91587L 1.56268 5.91055L 4.7689e-06 5.91055L 4.7689e-06 0.236422L 1.64081 0.236422L 1.64081 0.15761Z"/>
        <path id="path35_fill" d="M 2.34401 7.80192C 2.50027 8.03835 2.65655 8.19597 2.81281 8.35358C 3.04721 8.5112 3.28161 8.59 3.51601 8.66881C 3.75041 8.74762 4.06295 8.74762 4.37549 8.74762C 4.60989 8.74762 4.76614 8.74762 5.00054 8.66881C 5.23495 8.66881 5.46935 8.59 5.62562 8.5112C 5.86002 8.43239 6.01629 8.27477 6.09442 8.11716C 6.25069 7.95955 6.32882 7.72312 6.32882 7.4867C 6.32882 7.25028 6.25069 7.01385 6.09442 6.85624C 5.93815 6.69862 5.70375 6.54101 5.39121 6.4622C 5.07868 6.38339 4.76615 6.22578 4.45361 6.14698C 4.06294 6.06817 3.75041 5.98935 3.35975 5.83174C 2.96908 5.75293 2.65654 5.59532 2.26587 5.51651C 1.8752 5.3589 1.56267 5.20129 1.32827 4.96487C 1.01573 4.72844 0.781338 4.49202 0.625071 4.17679C 0.468804 3.86156 0.390668 3.46753 0.390668 2.99468C 0.390668 2.44303 0.468797 2.049 0.703197 1.65496C 0.937598 1.26092 1.25014 0.945683 1.56267 0.709261C 1.95334 0.472839 2.34401 0.23642 2.73468 0.157612C 3.20348 -2.40736e-06 3.67228 -2.23984e-14 4.06294 -2.23984e-14C 4.60988 -2.23984e-14 5.07869 0.0788049 5.54749 0.157612C 6.01629 0.23642 6.48509 0.472839 6.79762 0.709261C 7.18829 0.945683 7.50083 1.33972 7.65709 1.73376C 7.89149 2.1278 7.96962 2.67945 7.96962 3.23111L 5.86002 3.23111C 5.86002 2.91588 5.78189 2.67945 5.70375 2.44303C 5.62562 2.20661 5.46935 2.04899 5.31309 1.97018C 5.15682 1.89138 4.92242 1.81257 4.68801 1.73376C 4.45361 1.65495 4.21921 1.65496 3.90668 1.65496C 3.75041 1.65496 3.51601 1.65495 3.35975 1.73376C 3.20348 1.73376 3.04721 1.81257 2.89094 1.97018C 2.73467 2.04899 2.65654 2.2066 2.50027 2.28541C 2.42214 2.44302 2.34401 2.60065 2.34401 2.83707C 2.34401 3.07349 2.34401 3.2311 2.42215 3.30991C 2.50028 3.46752 2.65654 3.54634 2.89094 3.62514C 3.12534 3.70395 3.43787 3.86156 3.82854 3.94037C 4.21921 4.01918 4.68801 4.17679 5.39121 4.3344C 5.54748 4.3344 5.86001 4.41321 6.17255 4.57083C 6.48508 4.64964 6.79762 4.80724 7.18829 5.04367C 7.50082 5.28009 7.81336 5.51651 8.04776 5.91055C 8.28216 6.30459 8.43843 6.77743 8.43843 7.32909C 8.43843 7.80193 8.36029 8.19596 8.20403 8.59C 8.04776 8.98403 7.73522 9.29926 7.42269 9.61449C 7.03202 9.92972 6.64136 10.1662 6.09442 10.3238C 5.54749 10.4814 5.00055 10.5602 4.29735 10.5602C 3.75041 10.5602 3.20347 10.4814 2.65654 10.3238C 2.1096 10.1662 1.64081 10.0085 1.25014 9.69331C 0.859474 9.37808 0.54693 9.06284 0.31253 8.59C 0.0781288 8.11715 0 7.56551 0 6.93505L 2.1096 6.93505C 2.18774 7.32909 2.26587 7.5655 2.34401 7.80192Z"/>
        <path id="path36_fill" d="M 4.53174 2.20661L 4.53174 3.54633L 3.04721 3.54633L 3.04721 7.17147C 3.04721 7.4867 3.12534 7.72312 3.20347 7.88074C 3.28161 7.95954 3.51602 8.03835 3.90668 8.03835C 3.98482 8.03835 4.14108 8.03835 4.21921 8.03835C 4.29735 8.03835 4.45361 8.03836 4.53174 7.95955L 4.53174 9.5357C 4.37548 9.5357 4.14108 9.6145 3.98481 9.6145C 3.75041 9.6145 3.59414 9.6145 3.35974 9.6145C 3.0472 9.6145 2.73468 9.6145 2.50028 9.5357C 2.18774 9.45689 1.95333 9.37808 1.79707 9.29927C 1.56267 9.14166 1.40641 8.98404 1.32827 8.74762C 1.17201 8.5112 1.17201 8.19597 1.17201 7.88074L 1.17201 3.54633L 4.7689e-06 3.54633L 4.7689e-06 2.20661L 1.17201 2.20661L 1.17201 0L 3.20347 0L 3.20347 2.20661L 4.53174 2.20661Z"/>
        <path id="path37_fill" d="M 1.95334 0.157617L 1.95334 1.49734C 2.03147 1.26092 2.18774 1.02449 2.34401 0.866879C 2.50027 0.709264 2.65654 0.472849 2.89094 0.394042C 3.12534 0.236427 3.28161 0.157612 3.51601 0.078805C 3.75041 -2.40736e-06 3.98481 4.81002e-06 4.21921 4.81002e-06C 4.37548 4.81002e-06 4.53175 -2.40736e-06 4.68801 0.078805L 4.68801 1.97019C 4.60988 1.97019 4.45362 1.97018 4.37548 1.89138C 4.21922 1.89138 4.14108 1.89138 3.98482 1.89138C 3.59415 1.89138 3.28161 1.97018 3.0472 2.04899C 2.8128 2.2066 2.57841 2.36422 2.42215 2.52184C 2.26588 2.75826 2.18774 2.99468 2.1096 3.2311C 2.03147 3.54633 2.03148 3.86156 2.03148 4.17679L 2.03148 7.4867L 0 7.4867L 0 0.157617L 1.95334 0.157617Z"/>
        <path id="path38_fill" d="M 0.263696 2.28541C 0.419963 1.81256 0.732498 1.41853 1.04503 1.1033C 1.35757 0.788069 1.74823 0.472839 2.21704 0.315225C 2.68584 0.15761 3.15464 0 3.77971 0C 4.32664 0 4.87358 0.0788025 5.34238 0.315225C 5.81118 0.472839 6.20185 0.788069 6.51438 1.1033C 6.82692 1.41853 7.06132 1.81256 7.29572 2.28541C 7.45199 2.75825 7.53013 3.3099 7.53013 3.86156C 7.53013 4.41321 7.45199 4.96486 7.29572 5.4377C 7.13945 5.91055 6.82692 6.30458 6.51438 6.61981C 6.20185 6.93504 5.81118 7.25027 5.34238 7.40789C 4.87358 7.5655 4.32664 7.64431 3.77971 7.64431C 3.23277 7.64431 2.68584 7.5655 2.21704 7.40789C 1.74823 7.25027 1.35757 6.93504 1.04503 6.61981C 0.732498 6.30458 0.498097 5.91055 0.263696 5.4377C 0.107429 4.96486 0.0293049 4.41321 0.0293049 3.86156C -0.0488287 3.3099 0.0292953 2.75825 0.263696 2.28541ZM 2.06077 4.72844C 2.1389 5.04367 2.21705 5.28009 2.37331 5.51652C 2.52958 5.75294 2.68584 5.91055 2.92025 6.06816C 3.15465 6.22578 3.38904 6.30459 3.77971 6.30459C 4.09224 6.30459 4.40478 6.22578 4.63918 6.06816C 4.87358 5.91055 5.02986 5.75294 5.18613 5.51652C 5.34239 5.28009 5.42052 5.04367 5.49866 4.72844C 5.57679 4.41321 5.57679 4.17679 5.57679 3.86156C 5.57679 3.54633 5.57679 3.30991 5.49866 2.99468C 5.42052 2.67945 5.34239 2.44303 5.18613 2.20661C 5.02986 1.97019 4.87358 1.81257 4.63918 1.65496C 4.40478 1.49734 4.09224 1.41853 3.77971 1.41853C 3.46717 1.41853 3.15465 1.49734 2.92025 1.65496C 2.68584 1.81257 2.52958 1.97019 2.37331 2.20661C 2.21705 2.44303 2.1389 2.67945 2.06077 2.99468C 1.98264 3.30991 1.98264 3.54633 1.98264 3.86156C 1.98264 4.17679 1.98264 4.49202 2.06077 4.72844Z"/>
        <path id="path39_fill" d="M 2.10961 -2.40501e-06L 2.10961 5.43771L 4.60987 2.83707L 6.95388 2.83707L 4.2192 5.51651L 7.26643 10.1662L 4.84429 10.1662L 2.81281 6.85624L 2.03147 7.64431L 2.03147 10.1662L -4.76889e-06 10.1662L -4.76889e-06 -2.40501e-06L 2.10961 -2.40501e-06Z"/>
        <path id="path40_fill" d="M 2.50028 5.75293C 2.81282 6.06816 3.20347 6.22578 3.82854 6.22578C 4.21921 6.22578 4.60989 6.14698 4.84429 5.91056C 5.15683 5.67413 5.31308 5.51652 5.39121 5.2801L 7.11016 5.2801C 6.79763 6.14698 6.40695 6.77743 5.78188 7.17147C 5.23494 7.5655 4.53176 7.72312 3.67229 7.72312C 3.12535 7.72312 2.57842 7.64431 2.10962 7.40789C 1.64081 7.25028 1.25015 6.93505 0.937612 6.61982C 0.625078 6.30459 0.390658 5.91055 0.234391 5.43771C 0.078124 4.96486 0 4.41321 0 3.86156C 0 3.30991 0.078124 2.83707 0.234391 2.36423C 0.390658 1.89138 0.703193 1.49734 1.01573 1.1033C 1.32826 0.788074 1.71893 0.472844 2.18773 0.315229C 2.65653 0.0788073 3.12535 4.81002e-06 3.67229 4.81002e-06C 4.29736 4.81002e-06 4.84427 0.157619 5.31307 0.394042C 5.78188 0.630464 6.17256 0.945691 6.40696 1.33973C 6.7195 1.73376 6.95389 2.20661 7.03202 2.75826C 7.18829 3.30991 7.1883 3.78275 7.1883 4.41321L 1.95334 4.41321C 2.03147 4.96486 2.26588 5.4377 2.50028 5.75293ZM 4.76615 1.89138C 4.53175 1.65495 4.14109 1.49734 3.67229 1.49734C 3.35975 1.49734 3.12535 1.57614 2.89095 1.65495C 2.65655 1.73376 2.50028 1.89137 2.42215 2.04899C 2.26588 2.2066 2.18773 2.36422 2.18773 2.52184C 2.1096 2.67945 2.10962 2.83706 2.10962 2.99467L 5.39121 2.99467C 5.15681 2.52183 5.00055 2.1278 4.76615 1.89138Z"/>
        <path id="path41_fill" d="M 1.95334 4.2556C 2.03148 4.41321 2.1096 4.49202 2.18774 4.57082C 2.26587 4.64963 2.42214 4.72844 2.5784 4.72844C 2.73467 4.72844 2.89094 4.80725 3.04721 4.80725C 3.12534 4.80725 3.28161 4.80725 3.35974 4.80725C 3.51601 4.80725 3.59415 4.72844 3.67228 4.64964C 3.75041 4.57083 3.82855 4.49202 3.90668 4.41321C 3.98482 4.3344 3.98481 4.1768 3.98481 4.09799C 3.98481 3.86157 3.82855 3.70394 3.51602 3.54633C 3.20348 3.46752 2.8128 3.30991 2.18774 3.2311C 1.95333 3.15229 1.71894 3.1523 1.56268 3.07349C 1.32828 2.99468 1.172 2.91587 1.01573 2.83706C 0.859464 2.75826 0.703197 2.60064 0.625064 2.44303C 0.54693 2.28541 0.468799 2.04899 0.468799 1.81257C 0.468799 1.41853 0.546935 1.18212 0.703202 0.945693C 0.859469 0.709271 1.01573 0.551647 1.25013 0.394032C 1.48454 0.236417 1.71894 0.157615 2.03147 0.0788074C 2.344 0 2.65654 -4.81002e-06 2.89094 -4.81002e-06C 3.20348 -4.81002e-06 3.51601 0 3.75041 0.0788074C 4.06294 0.157615 4.29734 0.236417 4.53174 0.394032C 4.76614 0.551647 4.92242 0.709271 5.07869 0.945693C 5.23495 1.18212 5.31308 1.49734 5.31308 1.81257L 3.82855 1.81257C 3.82855 1.49734 3.67228 1.33972 3.51602 1.18211C 3.28161 1.1033 3.04721 1.02449 2.81281 1.02449C 2.73467 1.02449 2.65654 1.02449 2.50028 1.02449C 2.42214 1.02449 2.344 1.0245 2.18774 1.10331C 2.1096 1.10331 2.03148 1.18211 1.95334 1.26092C 1.87521 1.33973 1.87521 1.41853 1.87521 1.57614C 1.87521 1.73376 1.95334 1.81257 2.03147 1.89138C 2.1096 1.97019 2.26587 2.049 2.42214 2.1278C 2.57841 2.20661 2.8128 2.20661 2.96907 2.28542C 3.20347 2.36422 3.35974 2.36422 3.59414 2.44303C 3.82854 2.52184 4.06295 2.52183 4.21921 2.60064C 4.45361 2.67945 4.60988 2.75826 4.76615 2.91588C 4.92241 3.07349 5.07868 3.15229 5.15681 3.38871C 5.23495 3.54633 5.31308 3.78275 5.31308 4.01918C 5.31308 4.41321 5.23495 4.72844 5.07869 4.96486C 4.92242 5.20128 4.76615 5.43771 4.45362 5.59532C 4.21922 5.75294 3.90668 5.83174 3.59414 5.91055C 3.28161 5.98935 2.96908 5.98936 2.65654 5.98936C 2.34401 5.98936 2.03148 5.98935 1.71894 5.91055C 1.40641 5.83174 1.09387 5.75294 0.859467 5.59532C 0.625066 5.43771 0.390663 5.20128 0.234396 4.96486C 0.0781288 4.72844 4.76889e-06 4.41321 4.76889e-06 4.01918L 1.48454 4.01918C 1.87521 4.01918 1.95334 4.09799 1.95334 4.2556Z"/>
        <path id="path42_fill" d="M 1.8752 4.2556C 1.95334 4.41321 2.03147 4.49202 2.10961 4.57082C 2.18774 4.64963 2.34401 4.72844 2.50027 4.72844C 2.65654 4.72844 2.81281 4.80725 2.96908 4.80725C 3.04721 4.80725 3.20348 4.80725 3.28161 4.80725C 3.43788 4.80725 3.51601 4.72844 3.59414 4.64964C 3.67227 4.57083 3.75041 4.49202 3.82854 4.41321C 3.90668 4.3344 3.90668 4.1768 3.90668 4.09799C 3.90668 3.86157 3.75041 3.70394 3.43788 3.54633C 3.12534 3.46752 2.73468 3.30991 2.10961 3.2311C 1.87521 3.15229 1.6408 3.1523 1.48454 3.07349C 1.25013 2.99468 1.09387 2.91587 0.937603 2.83706C 0.781336 2.75826 0.625069 2.60064 0.546935 2.44303C 0.468801 2.28541 0.39067 2.04899 0.39067 1.81257C 0.39067 1.41853 0.468806 1.18212 0.625073 0.945693C 0.781341 0.709271 0.937605 0.551647 1.17201 0.394032C 1.40641 0.236417 1.64081 0.157615 1.95334 0.0788074C 2.26588 0 2.5784 -4.81002e-06 2.8128 -4.81002e-06C 3.12534 -4.81002e-06 3.43788 0 3.67228 0.0788074C 3.98481 0.157615 4.21921 0.236417 4.45361 0.394032C 4.68801 0.551647 4.84428 0.709271 5.00055 0.945693C 5.15681 1.18212 5.23495 1.49734 5.23495 1.81257L 3.75042 1.81257C 3.75042 1.49734 3.59414 1.33972 3.43788 1.18211C 3.20347 1.1033 2.96908 1.02449 2.73468 1.02449C 2.65654 1.02449 2.5784 1.02449 2.42214 1.02449C 2.344 1.02449 2.26587 1.0245 2.10961 1.10331C 2.03147 1.10331 1.95334 1.18211 1.8752 1.26092C 1.79707 1.33973 1.79708 1.41853 1.79708 1.57614C 1.79708 1.73376 1.87521 1.81257 1.95334 1.89138C 2.03148 1.97019 2.18774 2.049 2.34401 2.1278C 2.50028 2.20661 2.73468 2.20661 2.89094 2.28542C 3.12534 2.36422 3.28161 2.36422 3.51601 2.44303C 3.75041 2.52184 3.98482 2.52183 4.14108 2.60064C 4.37549 2.67945 4.53175 2.75826 4.68802 2.91588C 4.84428 3.07349 5.00055 3.15229 5.07869 3.38871C 5.15682 3.54633 5.23495 3.78275 5.23495 4.01918C 5.23495 4.41321 5.15681 4.72844 5.00055 4.96486C 4.84428 5.20128 4.68801 5.43771 4.45361 5.59532C 4.21921 5.75294 3.90667 5.83174 3.59414 5.91055C 3.28161 5.98935 2.96907 5.98936 2.65654 5.98936C 2.34401 5.98936 2.03147 5.98935 1.71894 5.91055C 1.4064 5.83174 1.09387 5.75294 0.859465 5.59532C 0.625064 5.43771 0.390673 5.20128 0.234406 4.96486C 0.0781383 4.72844 2.38445e-06 4.41321 2.38445e-06 4.01918L 1.48454 4.01918C 1.71894 4.01918 1.79707 4.09799 1.8752 4.2556Z"/>
        <path id="path43_fill" d="M 0.234401 1.81256C 0.390668 1.41853 0.546937 1.1033 0.859472 0.866879C 1.09387 0.630457 1.4064 0.394032 1.79707 0.236417C 2.18774 0.0788026 2.57841 4.81002e-06 2.96908 4.81002e-06C 3.43788 4.81002e-06 3.82855 0.0788026 4.14108 0.236417C 4.53175 0.394032 4.84429 0.551649 5.07869 0.866879C 5.31309 1.1033 5.54748 1.41853 5.70375 1.81256C 5.86002 2.2066 5.93814 2.60064 5.93814 3.07349C 5.93814 3.54633 5.86002 3.94037 5.70375 4.33441C 5.54748 4.72845 5.39123 5.04367 5.07869 5.2801C 4.84429 5.51652 4.53175 5.75294 4.14108 5.91056C 3.75041 6.06817 3.35974 6.14697 2.96908 6.14697C 2.50027 6.14697 2.10961 6.06817 1.79707 5.91056C 1.4064 5.75294 1.17201 5.59533 0.859472 5.2801C 0.625071 5.04367 0.390668 4.72845 0.234401 4.33441C 0.0781336 3.94037 -2.38445e-06 3.54633 -2.38445e-06 3.07349C 0.0781312 2.60064 0.156267 2.2066 0.234401 1.81256ZM 1.71893 3.70395C 1.79707 3.94037 1.8752 4.09798 1.95334 4.2556C 2.03147 4.41321 2.18774 4.57083 2.344 4.64963C 2.50027 4.72844 2.73468 4.80725 2.96908 4.80725C 3.20348 4.80725 3.43788 4.72844 3.59415 4.64963C 3.75041 4.57083 3.90668 4.41321 3.98481 4.2556C 4.06295 4.09798 4.14108 3.86156 4.21922 3.70395C 4.29735 3.46753 4.29736 3.2311 4.29736 3.07349C 4.29736 2.83707 4.29735 2.60065 4.21922 2.36423C 4.14108 2.1278 4.06295 1.97018 3.98481 1.81256C 3.90668 1.65495 3.75041 1.49734 3.59415 1.41853C 3.43788 1.33972 3.20348 1.26092 2.96908 1.26092C 2.73468 1.26092 2.50027 1.33972 2.344 1.41853C 2.18774 1.49734 2.03147 1.65495 1.95334 1.81256C 1.8752 1.97018 1.79707 2.20661 1.71893 2.36423C 1.6408 2.60065 1.64081 2.83707 1.64081 3.07349C 1.64081 3.30991 1.6408 3.54633 1.71893 3.70395Z"/>
        <path id="path44_fill" d="M 2.89094 1.26092C 2.65654 1.26092 2.42215 1.33972 2.26588 1.41853C 2.10962 1.49733 1.95335 1.65495 1.87522 1.89138C 1.79708 2.04899 1.71893 2.28542 1.6408 2.52184C 1.56267 2.75826 1.56266 2.91588 1.56266 3.1523C 1.56266 3.38872 1.56267 3.54633 1.6408 3.78275C 1.71893 4.01917 1.71895 4.17679 1.87522 4.33441C 1.95335 4.49202 2.10962 4.64964 2.26588 4.72845C 2.42215 4.80725 2.65654 4.88606 2.89094 4.88606C 3.28161 4.88606 3.51602 4.80724 3.75042 4.57082C 3.98482 4.3344 4.06295 4.09798 4.14108 3.70395L 5.62562 3.70395C 5.54748 4.49202 5.23494 5.04367 4.76614 5.43771C 4.29734 5.83174 3.67228 6.06817 2.89094 6.06817C 2.50027 6.06817 2.10961 5.98936 1.71894 5.83174C 1.32827 5.67413 1.09386 5.51651 0.781326 5.20128C 0.546925 4.96486 0.312539 4.64963 0.234405 4.2556C 0.0781383 3.86156 -9.53779e-06 3.54633 -9.53779e-06 3.07349C -9.53779e-06 2.60064 0.0781336 2.2066 0.156267 1.81256C 0.312534 1.41853 0.468811 1.1033 0.703212 0.866878C 0.937612 0.630456 1.25013 0.394032 1.6408 0.236417C 2.03147 0.0788025 2.42214 4.81002e-06 2.89094 4.81002e-06C 3.20348 4.81002e-06 3.51602 0.0788098 3.82855 0.157617C 4.14109 0.236424 4.4536 0.394039 4.688 0.551654C 4.92241 0.709269 5.15682 0.945686 5.31309 1.26092C 5.46936 1.49734 5.54748 1.81256 5.54748 2.2066L 4.06295 2.2066C 3.98481 1.57614 3.59414 1.26092 2.89094 1.26092Z"/>
        <path id="path45_fill" d="M 4.7689e-06 1.26092L 4.7689e-06 4.81002e-06L 1.56268 4.81002e-06L 1.56268 1.26092L 4.7689e-06 1.26092ZM 1.56268 2.2066L 1.56268 7.88074L 4.7689e-06 7.88074L 4.7689e-06 2.2066L 1.56268 2.2066Z"/>
        <path id="path46_fill" d="M 0.312534 0.945683C 0.468801 0.709261 0.703193 0.472842 0.937593 0.394034C 1.17199 0.23642 1.48453 0.157617 1.79707 0.0788098C 2.1096 2.40149e-06 2.42215 -2.40501e-06 2.73468 -2.40501e-06C 3.04721 -2.40501e-06 3.28162 2.40149e-06 3.59415 0.0788098C 3.90669 0.157617 4.14109 0.236427 4.37549 0.315234C 4.60989 0.394042 4.84428 0.630456 5.00055 0.788071C 5.15682 1.02449 5.23494 1.26092 5.23494 1.65496L 5.23494 4.64964C 5.23494 4.88606 5.23494 5.12248 5.31308 5.3589C 5.31308 5.59532 5.39122 5.75293 5.46936 5.91055L 3.90668 5.91055C 3.90668 5.83174 3.82855 5.75293 3.82855 5.67412C 3.82855 5.59532 3.82855 5.51651 3.82855 5.3589C 3.59414 5.59532 3.28161 5.83174 2.96907 5.91055C 2.65654 5.98936 2.26588 6.06816 1.95334 6.06816C 1.71894 6.06816 1.40641 6.06817 1.17201 5.98936C 0.937608 5.91055 0.703193 5.83174 0.546925 5.67412C 0.390658 5.51651 0.234391 5.3589 0.156258 5.12248C 0.078124 4.88605 4.76889e-06 4.64963 4.76889e-06 4.3344C 4.76889e-06 4.01917 0.078124 3.78275 0.156258 3.54633C 0.234391 3.30991 0.390663 3.1523 0.625064 3.07349C 0.781331 2.91588 1.01575 2.83706 1.25015 2.75826C 1.48455 2.67945 1.71894 2.67945 1.95334 2.60064C 2.18775 2.60064 2.42214 2.52183 2.65654 2.52183C 2.89094 2.52183 3.0472 2.44303 3.2816 2.44303C 3.43787 2.36422 3.59414 2.36423 3.67227 2.28542C 3.7504 2.20661 3.82855 2.049 3.82855 1.89138C 3.82855 1.73377 3.82854 1.57615 3.75041 1.49734C 3.67227 1.41854 3.59415 1.33973 3.51602 1.26092C 3.43788 1.18211 3.28162 1.18211 3.20349 1.18211C 3.04722 1.18211 2.96909 1.18211 2.81282 1.18211C 2.50028 1.18211 2.26586 1.26092 2.1096 1.41853C 1.95333 1.57615 1.79707 1.73376 1.79707 2.04899L 0.234396 2.04899C -4.77355e-06 1.49734 0.156267 1.18211 0.312534 0.945683ZM 3.35974 3.15229C 3.28161 3.15229 3.12534 3.2311 3.04721 3.2311C 2.96908 3.2311 2.81281 3.3099 2.65654 3.3099C 2.50027 3.3099 2.42214 3.30991 2.26587 3.38872C 2.18774 3.38872 2.03148 3.46753 1.95334 3.46753C 1.87521 3.46753 1.71895 3.54633 1.64081 3.62514C 1.56268 3.70395 1.48453 3.78276 1.4064 3.86157C 1.32827 3.94037 1.32826 4.09799 1.32826 4.2556C 1.32826 4.41322 1.32827 4.49202 1.4064 4.57083C 1.48453 4.64963 1.56268 4.72844 1.64081 4.80725C 1.71895 4.88606 1.79708 4.88605 1.95334 4.88605C 2.03148 4.88605 2.18775 4.88605 2.34401 4.88605C 2.65655 4.88605 2.89094 4.80725 3.04721 4.72844C 3.20348 4.64963 3.35974 4.49202 3.43788 4.3344C 3.51601 4.17679 3.59415 4.01918 3.59415 3.86157C 3.59415 3.70395 3.59415 3.62514 3.59415 3.54633L 3.59415 2.99468C 3.51602 3.07349 3.43787 3.15229 3.35974 3.15229Z"/>
        <path id="path47_fill" d="M 3.67229 1.65495L 3.67229 2.67945L 2.50028 2.67945L 2.50028 5.51652C 2.50028 5.75294 2.5784 5.98936 2.65654 6.06817C 2.73467 6.14697 2.89095 6.22578 3.20348 6.22578C 3.28162 6.22578 3.35974 6.22578 3.43787 6.22578C 3.51601 6.22578 3.59415 6.22578 3.67229 6.22578L 3.67229 7.40789C 3.51602 7.40789 3.35975 7.40789 3.20348 7.4867C 3.04721 7.4867 2.89094 7.4867 2.73468 7.4867C 2.50027 7.4867 2.26588 7.4867 2.03148 7.40789C 1.79708 7.40789 1.6408 7.32908 1.48453 7.25028C 1.32827 7.17147 1.172 7.01385 1.09387 6.85624C 1.01573 6.69863 0.937613 6.46221 0.937613 6.14698L 0.937613 2.75826L 0 2.75826L 0 1.73376L 0.937613 1.73376L 0.937613 2.40501e-06L 2.50028 2.40501e-06L 2.50028 1.73376L 3.67229 1.73376L 3.67229 1.65495Z"/>
        <path id="path48_fill" d="M 0.234391 1.81256C 0.390658 1.41853 0.54694 1.1033 0.859474 0.866879C 1.09387 0.630457 1.40639 0.394032 1.79706 0.236417C 2.18773 0.0788026 2.5784 4.81002e-06 2.96907 4.81002e-06C 3.43787 4.81002e-06 3.82854 0.0788026 4.14107 0.236417C 4.53174 0.394032 4.84428 0.551649 5.07868 0.866879C 5.31308 1.1033 5.54747 1.41853 5.70374 1.81256C 5.86001 2.2066 5.93816 2.60064 5.93816 3.07349C 5.93816 3.54633 5.86001 3.94037 5.70374 4.33441C 5.54747 4.72845 5.39122 5.04367 5.07868 5.2801C 4.84428 5.51652 4.53174 5.75294 4.14107 5.91056C 3.7504 6.06817 3.35973 6.14697 2.96907 6.14697C 2.50026 6.14697 2.1096 6.06817 1.79706 5.91056C 1.40639 5.75294 1.17201 5.59533 0.859474 5.2801C 0.625073 5.04367 0.390658 4.72845 0.234391 4.33441C 0.078124 3.94037 0 3.54633 0 3.07349C 0.0781336 2.60064 0.078124 2.2066 0.234391 1.81256ZM 1.64081 3.70395C 1.71894 3.94037 1.79707 4.09798 1.8752 4.2556C 1.95333 4.41321 2.1096 4.57083 2.26587 4.64963C 2.42214 4.72844 2.65655 4.80725 2.89095 4.80725C 3.12535 4.80725 3.35974 4.72844 3.51601 4.64963C 3.67228 4.57083 3.82855 4.41321 3.90668 4.2556C 3.98481 4.09798 4.06294 3.86156 4.14107 3.70395C 4.2192 3.46753 4.21921 3.2311 4.21921 3.07349C 4.21921 2.83707 4.2192 2.60065 4.14107 2.36423C 4.06294 2.1278 3.98481 1.97018 3.90668 1.81256C 3.82855 1.65495 3.67228 1.49734 3.51601 1.41853C 3.35974 1.33972 3.12535 1.26092 2.89095 1.26092C 2.65655 1.26092 2.42214 1.33972 2.26587 1.41853C 2.1096 1.49734 1.95333 1.65495 1.8752 1.81256C 1.79707 1.97018 1.71894 2.20661 1.64081 2.36423C 1.56268 2.60065 1.56267 2.83707 1.56267 3.07349C 1.56267 3.30991 1.64081 3.54633 1.64081 3.70395Z"/>
        <path id="path49_fill" d="M 0.625073 4.81002e-06L 2.38445e-06 4.81002e-06L 2.38445e-06 23.721L 0.625073 23.721L 0.625073 4.81002e-06Z"/>
        <path id="path50_fill" d="M 1.71895 3.46753C 0.703212 3.46753 0 2.67945 0 1.73376C 0 0.709261 0.781345 -2.40501e-06 1.71895 -2.40501e-06C 2.65655 -2.40501e-06 3.43787 0.709261 3.43787 1.73376C 3.43787 2.75825 2.65655 3.46753 1.71895 3.46753ZM 1.71895 0.236422C 0.937612 0.236422 0.390668 0.866876 0.390668 1.73376C 0.390668 2.52183 0.937612 3.2311 1.71895 3.2311C 2.50028 3.2311 3.0472 2.60064 3.0472 1.73376C 3.12534 0.866876 2.50028 0.236422 1.71895 0.236422ZM 1.40639 2.67946L 1.09387 2.67946L 1.09387 0.709271L 1.79706 0.709271C 2.26586 0.709271 2.50028 0.866883 2.50028 1.26092C 2.50028 1.65496 2.26588 1.73376 2.03148 1.81257L 2.5784 2.67946L 2.18773 2.67946L 1.71895 1.81257L 1.40639 1.81257L 1.40639 2.67946ZM 1.79706 1.57614C 2.03146 1.57614 2.26587 1.57615 2.26587 1.26092C 2.26587 1.0245 2.03147 1.0245 1.8752 1.0245L 1.48453 1.0245L 1.48453 1.57614L 1.79706 1.57614Z"/>
    </defs>
</svg>
