<svg xmlns="http://www.w3.org/2000/svg" fill-rule="evenodd" viewBox="0 0 697 228" clip-rule="evenodd"><path fill="#fff" d="M176.52 22.75c-.1-.33-.3-.67-.26-.97.77-4.42-1.5-8-3.46-11.6-1.1-2.03-2.6-3.94-4.25-5.6-.97-.97-2.54-1.5-3.93-1.92-2.88-.87-5.8-1.6-8.75-2.27-3.53-.8-6.75.1-9.63 2.16-3.03 2.16-5.96 4.45-9 6.6-1.06.76-2.23 1.48-3.46 1.84-4.8 1.44-9.62 2.9-14.5 3.98-4.23.9-8.5 1.2-12.73-.57-2.35-.97-4.87-1.63-7.38-2.16-2.94-.6-5.47.76-7.78 2.33-3.97 2.7-7.9 5.4-11.7 8.33-2.7 2.1-5.16 4.53-7.66 6.9-2.9 2.73-5.72 5.56-8.6 8.33-1.95 1.85-3.96 3.63-5.92 5.46-2.57 2.4-4.4 5.24-5.53 8.52-1.8 5.3-4.14 10.34-7.24 15.07-4.52 6.9-5.9 14.82-7.28 22.72-.2 1.07-.44 2.14-.8 3.16-2.62 7.5-4.25 15.12-2.8 23.08.7 3.8 1.43 7.63 2.37 11.4.75 3 .53 3.24-2.5 3.04-2.17-.15-4.38.28-6.57.48-1.72.15-3.43.48-5.14.44-2.35-.05-4.02.7-5.04 2.85-.55 1.15-1.37 2.2-2.03 3.3-1.9 3.16-2.6 6.4-2.1 10.17.54 4.15.08 8.43.03 12.66-.03 2.6-.48 5.24-.1 7.76.6 3.9-.65 7.46-1.77 11-1.5 4.8-3.63 9.43-5.3 14.2-.4 1.14-.3 2.57-.06 3.8.54 2.83.88 5.5-.17 8.43-.58 1.6.32 3.64.37 5.5.05 1.64.2 3.4-.32 4.9-.83 2.47-2.14 4.77-3.26 7.13-.76 1.56-1.5 3.12-2.26 4.68h110.48c1.2-2.52 2.4-4.84 3.28-7.26.5-1.37.25-3 .5-4.47.32-1.93.8-3.84 1.23-5.77.1-.38.24-.74.32-.97-1.94-1.48-3.98-2.66-5.46-4.32-1-1.13-1.23-2.95-1.8-4.47-.53-1.46-1.26-2.9-1.53-4.4-.3-1.7-.57-3.55-.22-5.2 1.7-8.13 5.6-15.18 11.76-20.9 3.08-2.84 6.6-5.2 9.57-8.15 3.34-3.34 6.14-7.2 9.4-10.62 3.97-4.18 8.17-8.17 12.3-12.2 1.55-1.54 3.18-3 5.13-4.8.38.85.84 1.67 1.12 2.54.42 1.3 1.4 1.58 2.44 1.12 4.15-1.9 8.27-3.92 12.38-5.93.4-.2.82-.6.97-1 .9-2.44 2.1-4.84 2.46-7.34.27-2-.57-4.1-.9-6.17-.67-4.4-2.1-8.3-5.25-11.74-1.85-2-4.43-2.04-6.46-3.4-3.33-2.2-6.8-4.2-10.2-6.34-1.75-1.1-1.14-2.82-.46-4.04 3.8-6.86 7.76-13.63 11.7-20.4.7-1.2 1.46-2.34 2.35-3.37 3.97-4.57 3.28-9.36.7-14.17-1.44-2.68-3.15-5.2-4.63-7.87-.27-.48-.33-1.6-.05-1.8 3.7-2.46 3.9-7.06 6.46-10.05 1.98-2.3 3.25-5.4 6.66-6.6 2.72-.94 3.05-2.37 2.22-5.07M156.22 131.8c1.2-1.96 2.56-3.84 3.5-5.9.64-1.37 1.66-1.83 2.84-1.76 2.08.1 2.38 2.1 2.93 3.5.17.44-.8 1.7-1.53 2.02-2.4 1.07-4.9 1.87-7.4 2.78-.1-.2-.22-.43-.34-.64m-58.1 19.87c.35-3.12.7-6.23 1.26-9.3 1.15-6.46 1.6-6.8 8.26-7.17 1.3-.1 2.62-.28 3.93-.25 1.24.02 1.63.6.77 1.7-1.4 1.77-2.78 3.55-4.13 5.36-2.6 3.5-5.16 7.05-7.8 10.53-.35.45-1.1.62-1.65.92-.24-.6-.7-1.22-.66-1.8m17.97-53.08c-.22.13-.45.27-.7.4-.1.08-.23.22-.34.2-7.95-.36-15.82.15-23.64 1.7-1.95.37-4.03.32-6.03.2-.68-.05-1.47-.85-1.85-1.5-.15-.24.64-1.26 1.2-1.58 1.9-1.1 3.85-2.2 5.9-3.04 6.03-2.55 10.6-6.63 13.8-12.24.42-.76.93-1.6 1.63-2.05.47-.28 1.84-.13 1.98.2 2.76 5.86 5.4 11.78 8.04 17.7m26.46-51.3c-1.68.75-3.36 1.52-5.06 2.24-.35.16-.9.3-1.17.13-2.56-1.65-4.48-3.83-5.8-6.86 2.12-.15 3.97-.3 5.82-.4 3.13-.17 5.5 1.7 6.2 4.9M153.72 63c-4.17 6-9.15 11.35-15.28 16.1-.25-.63-.36-.9-.42-1.13-1.17-5.5-.43-10.94.63-16.35.2-.92.85-1.9 1.57-2.54 2.95-2.62 8.63-1.96 11.04 1.15.7.9 1.52 1.73 2.47 2.8"/><path fill="#fff" d="M672.6 142.4c-6.88 0-12.63 2.05-17.25 6.14-4.62 4.07-6.93 9.12-6.93 15.17 0 8.98 5.5 15.8 16.52 20.44l7.76 3.23c2.02.87 3.75 1.78 5.2 2.74 1.47.96 2.66 2 3.58 3.08.92 1.1 1.6 2.3 2.03 3.6.46 1.3.68 2.74.68 4.3 0 3.9-1.25 7.1-3.76 9.64-2.5 2.54-5.63 3.8-9.42 3.8-4.8 0-8.44-1.73-10.94-5.2-1.4-1.8-2.36-5.07-2.92-9.8l-12.3 2.7c1.12 7.5 3.9 13.33 8.4 17.47 4.54 4.12 10.3 6.2 17.3 6.2 7.36 0 13.52-2.44 18.5-7.3 4.92-4.84 7.4-10.95 7.4-18.35 0-5.52-1.52-10.18-4.54-14-3.03-3.8-7.8-7-14.33-9.65l-8.03-3.3c-5.83-2.38-8.75-5.54-8.75-9.47 0-2.84 1.1-5.2 3.33-7.07 2.23-1.92 5.02-2.87 8.4-2.87 2.74 0 4.98.54 6.72 1.66 1.66.97 3.42 3.06 5.26 6.25l9.86-5.83c-5.2-9.03-12.46-13.54-21.73-13.54m-62 0c-6.9 0-12.64 2.05-17.26 6.14-4.62 4.07-6.93 9.12-6.93 15.17 0 8.97 5.52 15.78 16.53 20.43l7.76 3.23c2 .87 3.74 1.78 5.2 2.74 1.46.95 2.65 1.98 3.57 3.07.92 1.1 1.6 2.3 2.03 3.6.44 1.3.66 2.75.66 4.3 0 3.9-1.26 7.1-3.77 9.65-2.5 2.54-5.64 3.8-9.43 3.8-4.8 0-8.44-1.73-10.94-5.2-1.4-1.8-2.36-5.07-2.92-9.8l-12.28 2.7c1.1 7.5 3.9 13.33 8.4 17.47 4.54 4.13 10.3 6.2 17.28 6.2 7.37 0 13.53-2.43 18.5-7.3 4.93-4.83 7.4-10.94 7.4-18.34 0-5.52-1.5-10.18-4.53-14-3-3.8-7.8-7-14.32-9.65l-8.03-3.3c-5.82-2.38-8.74-5.54-8.74-9.47 0-2.84 1.1-5.2 3.35-7.07 2.22-1.93 5-2.88 8.4-2.88 2.73 0 4.97.55 6.7 1.67 1.67.96 3.43 3.05 5.27 6.24l9.85-5.84c-5.22-9.03-12.46-13.54-21.73-13.54m-37.84 1.56h-44.4v80.45h44.4V213h-32.3v-26.9h31.32v-11.4h-31.3v-19.33h32.24v-11.4zm-95.53 11.4h4.32c11.17 0 16.77 4.13 16.77 12.36 0 8.8-5.75 13.18-17.25 13.18h-3.85v-25.53zm28.03 26.9c3.26-4.1 4.9-9 4.9-14.7 0-7.3-2.6-13.16-7.82-17.6-4.73-4-12.4-6-23.03-6h-14.2v80.45h12.13V191.5h2.18l23 32.93h14.84l-24.9-34.28c5.35-1.14 9.65-3.77 12.92-7.86m-84.48-27.1h4.02c11.5 0 17.24 4.14 17.24 12.45 0 8.58-5.58 12.86-16.72 12.86h-4.54v-25.3zm5.63 36.57c8.38 0 15.03-2.16 19.96-6.46 4.94-4.3 7.4-10.13 7.4-17.5 0-6.9-2.3-12.57-6.92-17.1-2.64-2.6-5.7-4.36-9.17-5.3-3.43-.94-8.52-1.4-15.26-1.4H408.7v80.44h12.15v-32.66h5.63zM672.6 32.55c-6.88 0-12.63 2.05-17.25 6.15-4.62 4.06-6.93 9.1-6.93 15.16 0 8.96 5.5 15.77 16.52 20.42l7.76 3.23c2.02.9 3.75 1.8 5.2 2.76 1.47.95 2.66 1.98 3.58 3.08.92 1.1 1.6 2.3 2.04 3.6.43 1.3.65 2.72.65 4.3 0 3.88-1.25 7.1-3.75 9.63-2.5 2.53-5.65 3.8-9.44 3.8-4.8 0-8.44-1.74-10.94-5.2-1.4-1.82-2.36-5.08-2.92-9.8l-12.3 2.7c1.12 7.5 3.9 13.33 8.4 17.46 4.55 4.13 10.3 6.2 17.3 6.2 7.36 0 13.53-2.43 18.5-7.3 4.92-4.82 7.4-10.94 7.4-18.34 0-5.53-1.52-10.2-4.54-14-3.03-3.8-7.8-7-14.33-9.66l-8.03-3.3c-5.83-2.38-8.75-5.54-8.75-9.47 0-2.85 1.1-5.2 3.34-7.08 2.24-1.9 5.03-2.88 8.4-2.88 2.75 0 5 .57 6.73 1.68 1.66.97 3.42 3.05 5.26 6.25l9.84-5.84c-5.2-9.03-12.46-13.54-21.73-13.54m-54.52 82h12.14V34.12H618.1v80.46zm-10.5-69.03v-11.4h-49.1v11.4h18.5v69.04h12.15V45.52h18.44zm-118.22 69.04V58.24l58.67 61.22V34.1H535.9v55.92l-58.7-61.38v85.92h12.15zM416 83.6l12.5-27.35 11.94 27.36H416zm37.84 30.96h13.28l-38.4-85.5-39.8 85.5H402l8.94-19.54h34.44l8.44 19.54zM346.78 34.1v80.46h35.8v-11.4h-23.66V34.1h-12.14zm-10.5 11.42v-11.4h-49.1v11.4h18.5v69.04h12.15V45.52h18.44zm-96.72 38.1l12.5-27.37L264 83.6h-24.44zm37.83 30.94h13.27l-38.4-85.5-39.8 85.5h13.06l8.97-19.54h34.45l8.44 19.54z"/></svg>