<?xml version="1.0" encoding="utf-8"?>
<svg version="1.1" id="Layer_1" xmlns="http://www.w3.org/2000/svg" x="0px" y="0px"
	 viewBox="530 530 20 20"  xml:space="preserve">
<g>
	<path fill="#fff" d="M536.9,531.5c-3,0-5.5,2.4-5.5,5.5c0,3,2.4,5.5,5.5,5.5c3,0,5.6-2.4,5.6-5.5
		C542.4,534,539.9,531.6,536.9,531.5 M530,536.7c0-0.3,0.1-0.6,0.1-0.9c0.3-1.7,1.2-3.1,2.5-4.2c1.1-0.8,2.3-1.3,3.7-1.4
		c0,0,0.1,0,0.1,0c0.3,0,0.6,0,0.9,0c0,0,0.1,0,0.1,0c1.4,0.1,2.6,0.6,3.7,1.5c2.8,2.2,3.4,6.1,1.6,9.1c-0.1,0.2-0.3,0.4-0.5,0.7
		c0,0,0.1,0.1,0.1,0.1c1.8,1.8,3.7,3.7,5.5,5.5c0.6,0.6,1.3,1.3,1.9,1.9v0c-0.3,0.3-0.6,0.5-0.8,0.8c-0.1,0.1-0.1,0.1-0.2,0.2h0
		c0,0,0,0,0,0c-2.5-2.5-4.9-5-7.4-7.4c0,0-0.1-0.1-0.1-0.1c0,0-0.1,0.1-0.1,0.1c-2,1.4-4.1,1.8-6.4,1.1c-2.5-0.9-4-2.6-4.6-5.2
		c-0.1-0.3-0.1-0.6-0.1-0.8V536.7z"/>
</g>
</svg>
